<svg width="392" height="179" viewBox="0 0 392 179" fill="none" xmlns="http://www.w3.org/2000/svg">
<path fill-rule="evenodd" clip-rule="evenodd" d="M198.995 0.00502999C216.483 0.296724 229.474 12.5933 244.254 20.2456C258.433 27.587 272.638 34.185 284.211 44.1257C298.292 56.2204 320.565 67.7271 318.913 84.3748C317.222 101.417 289.933 107.866 276.582 121.02C265.884 131.56 262.521 146.995 248.179 154.067C233.775 161.169 215.318 155.963 198.995 159.278C176.196 163.907 156.289 181.543 133.355 177.384C110.765 173.288 93.3708 155.948 84.4026 138.499C75.7054 121.577 81.9715 102.497 85.5514 84.3748C88.6825 68.5251 91.373 51.8059 103.962 39.4889C115.908 27.801 136.054 25.6166 152.658 18.7178C168.282 12.2263 181.475 -0.287203 198.995 0.00502999Z" fill="#FAF9F4"/>
<rect x="95.2917" y="109.292" width="209.417" height="43.4167" rx="4.375" fill="white"/>
<rect x="107" y="121" width="20" height="20" rx="10" fill="#F3F9FF"/>
<g clip-path="url(#clip0_217_2091)">
<path d="M111.621 133.587L119.588 125.62M116.402 135.187L117.202 134.387M118.196 133.393L119.79 131.799" stroke="#046ED1" stroke-miterlimit="10" stroke-linecap="round" stroke-linejoin="round"/>
<path d="M110.332 137.665H123.666M111.4 129.826L115.826 125.399C117.24 123.986 117.946 123.979 119.346 125.379L122.62 128.653C124.02 130.053 124.013 130.759 122.6 132.173L118.173 136.599C116.76 138.013 116.053 138.019 114.653 136.619L111.38 133.346C109.98 131.946 109.98 131.246 111.4 129.826Z" stroke="#046ED1" stroke-linecap="round" stroke-linejoin="round"/>
</g>
<path d="M142.006 129H141.034L139.225 122.7H140.107L141.547 127.884L143.077 122.7H143.923L145.453 127.884L146.893 122.7H147.775L145.966 129H144.994L143.5 123.969L142.006 129ZM148.814 123.681C148.664 123.681 148.538 123.63 148.436 123.528C148.334 123.426 148.283 123.303 148.283 123.159C148.283 123.015 148.334 122.892 148.436 122.79C148.538 122.682 148.664 122.628 148.814 122.628C148.958 122.628 149.081 122.682 149.183 122.79C149.285 122.892 149.336 123.015 149.336 123.159C149.336 123.303 149.285 123.426 149.183 123.528C149.081 123.63 148.958 123.681 148.814 123.681ZM149.201 129H148.418V124.5H149.201V129ZM152.844 124.5V125.256H151.647V127.695C151.647 127.917 151.689 128.076 151.773 128.172C151.863 128.262 151.998 128.31 152.178 128.316C152.358 128.316 152.58 128.31 152.844 128.298V129C152.154 129.09 151.65 129.033 151.332 128.829C151.02 128.625 150.864 128.247 150.864 127.695V125.256H149.973V124.5H150.864V123.474L151.647 123.24V124.5H152.844ZM156.012 124.383C156.54 124.383 156.963 124.551 157.281 124.887C157.599 125.217 157.758 125.667 157.758 126.237V129H156.975V126.282C156.975 125.922 156.876 125.64 156.678 125.436C156.48 125.232 156.207 125.13 155.859 125.13C155.457 125.13 155.139 125.256 154.905 125.508C154.671 125.754 154.554 126.123 154.554 126.615V129H153.771V122.7H154.554V125.148C154.866 124.638 155.352 124.383 156.012 124.383ZM162.577 125.274V122.7H163.36V129H162.577V128.226C162.193 128.82 161.626 129.117 160.876 129.117C160.24 129.117 159.703 128.889 159.265 128.433C158.821 127.971 158.599 127.41 158.599 126.75C158.599 126.096 158.821 125.538 159.265 125.076C159.709 124.614 160.246 124.383 160.876 124.383C161.626 124.383 162.193 124.68 162.577 125.274ZM160.975 128.361C161.431 128.361 161.812 128.208 162.118 127.902C162.424 127.584 162.577 127.2 162.577 126.75C162.577 126.294 162.424 125.913 162.118 125.607C161.812 125.295 161.431 125.139 160.975 125.139C160.525 125.139 160.147 125.295 159.841 125.607C159.535 125.913 159.382 126.294 159.382 126.75C159.382 127.2 159.535 127.584 159.841 127.902C160.147 128.208 160.525 128.361 160.975 128.361ZM165.329 124.5V125.256C165.587 124.698 166.055 124.419 166.733 124.419V125.238C166.349 125.22 166.019 125.322 165.743 125.544C165.467 125.766 165.329 126.123 165.329 126.615V129H164.546V124.5H165.329ZM171.573 127.11H167.802C167.88 127.506 168.063 127.818 168.351 128.046C168.639 128.268 168.999 128.379 169.431 128.379C170.025 128.379 170.457 128.16 170.727 127.722L171.393 128.1C170.949 128.778 170.289 129.117 169.413 129.117C168.705 129.117 168.123 128.895 167.667 128.451C167.223 127.995 167.001 127.428 167.001 126.75C167.001 126.066 167.22 125.502 167.658 125.058C168.096 124.608 168.663 124.383 169.359 124.383C170.019 124.383 170.556 124.617 170.97 125.085C171.39 125.541 171.6 126.099 171.6 126.759C171.6 126.873 171.591 126.99 171.573 127.11ZM169.359 125.121C168.945 125.121 168.597 125.238 168.315 125.472C168.039 125.706 167.868 126.024 167.802 126.426H170.808C170.742 126.012 170.577 125.691 170.313 125.463C170.049 125.235 169.731 125.121 169.359 125.121ZM176.635 127.929L177.625 124.5H178.444L177.049 129H176.248L175.195 125.67L174.142 129H173.341L171.946 124.5H172.765L173.755 127.92L174.817 124.5H175.573L176.635 127.929ZM183.948 124.5V125.256H182.751V127.695C182.751 127.917 182.793 128.076 182.877 128.172C182.967 128.262 183.102 128.31 183.282 128.316C183.462 128.316 183.684 128.31 183.948 128.298V129C183.258 129.09 182.754 129.033 182.436 128.829C182.124 128.625 181.968 128.247 181.968 127.695V125.256H181.077V124.5H181.968V123.474L182.751 123.24V124.5H183.948ZM188.445 128.433C187.989 128.889 187.428 129.117 186.762 129.117C186.096 129.117 185.535 128.889 185.079 128.433C184.623 127.977 184.395 127.416 184.395 126.75C184.395 126.084 184.623 125.523 185.079 125.067C185.535 124.611 186.096 124.383 186.762 124.383C187.428 124.383 187.989 124.611 188.445 125.067C188.907 125.529 189.138 126.09 189.138 126.75C189.138 127.41 188.907 127.971 188.445 128.433ZM186.762 128.352C187.212 128.352 187.59 128.199 187.896 127.893C188.202 127.587 188.355 127.206 188.355 126.75C188.355 126.294 188.202 125.913 187.896 125.607C187.59 125.301 187.212 125.148 186.762 125.148C186.318 125.148 185.943 125.301 185.637 125.607C185.331 125.913 185.178 126.294 185.178 126.75C185.178 127.206 185.331 127.587 185.637 127.893C185.943 128.199 186.318 128.352 186.762 128.352ZM195.317 125.877H198.467V126.255C198.467 127.077 198.185 127.761 197.621 128.307C197.057 128.847 196.31 129.117 195.38 129.117C194.42 129.117 193.625 128.802 192.995 128.172C192.371 127.53 192.059 126.756 192.059 125.85C192.059 124.944 192.371 124.173 192.995 123.537C193.625 122.901 194.414 122.583 195.362 122.583C195.938 122.583 196.472 122.724 196.964 123.006C197.462 123.288 197.837 123.654 198.089 124.104L197.369 124.527C197.189 124.185 196.916 123.912 196.55 123.708C196.184 123.498 195.785 123.393 195.353 123.393C194.627 123.393 194.036 123.63 193.58 124.104C193.118 124.578 192.887 125.16 192.887 125.85C192.887 126.54 193.118 127.122 193.58 127.596C194.048 128.064 194.651 128.298 195.389 128.298C196.007 128.298 196.511 128.148 196.901 127.848C197.297 127.542 197.54 127.137 197.63 126.633H195.317V125.877ZM199.8 123.681C199.65 123.681 199.524 123.63 199.422 123.528C199.32 123.426 199.269 123.303 199.269 123.159C199.269 123.015 199.32 122.892 199.422 122.79C199.524 122.682 199.65 122.628 199.8 122.628C199.944 122.628 200.067 122.682 200.169 122.79C200.271 122.892 200.322 123.015 200.322 123.159C200.322 123.303 200.271 123.426 200.169 123.528C200.067 123.63 199.944 123.681 199.8 123.681ZM200.187 129H199.404V124.5H200.187V129ZM203.694 122.583V123.339C202.902 123.273 202.506 123.615 202.506 124.365V124.5H203.694V125.256H202.506V129H201.723V125.256H201.003V124.5H201.723V124.365C201.723 123.753 201.894 123.294 202.236 122.988C202.578 122.676 203.064 122.541 203.694 122.583ZM206.905 124.5V125.256H205.708V127.695C205.708 127.917 205.75 128.076 205.834 128.172C205.924 128.262 206.059 128.31 206.239 128.316C206.419 128.316 206.641 128.31 206.905 128.298V129C206.215 129.09 205.711 129.033 205.393 128.829C205.081 128.625 204.925 128.247 204.925 127.695V125.256H204.034V124.5H204.925V123.474L205.708 123.24V124.5H206.905ZM212.224 129.117C211.546 129.117 210.982 128.892 210.532 128.442C210.082 127.986 209.857 127.422 209.857 126.75C209.857 126.078 210.082 125.517 210.532 125.067C210.982 124.611 211.546 124.383 212.224 124.383C212.668 124.383 213.067 124.491 213.421 124.707C213.775 124.917 214.039 125.202 214.213 125.562L213.556 125.94C213.442 125.7 213.265 125.508 213.025 125.364C212.791 125.22 212.524 125.148 212.224 125.148C211.774 125.148 211.396 125.301 211.09 125.607C210.79 125.919 210.64 126.3 210.64 126.75C210.64 127.194 210.79 127.572 211.09 127.884C211.396 128.19 211.774 128.343 212.224 128.343C212.524 128.343 212.794 128.274 213.034 128.136C213.274 127.992 213.457 127.8 213.583 127.56L214.249 127.947C214.051 128.307 213.772 128.592 213.412 128.802C213.052 129.012 212.656 129.117 212.224 129.117ZM218.686 125.274V124.5H219.469V129H218.686V128.226C218.302 128.82 217.735 129.117 216.985 129.117C216.349 129.117 215.812 128.889 215.374 128.433C214.93 127.971 214.708 127.41 214.708 126.75C214.708 126.096 214.93 125.538 215.374 125.076C215.818 124.614 216.355 124.383 216.985 124.383C217.735 124.383 218.302 124.68 218.686 125.274ZM217.084 128.361C217.54 128.361 217.921 128.208 218.227 127.902C218.533 127.584 218.686 127.2 218.686 126.75C218.686 126.294 218.533 125.913 218.227 125.607C217.921 125.295 217.54 125.139 217.084 125.139C216.634 125.139 216.256 125.295 215.95 125.607C215.644 125.913 215.491 126.294 215.491 126.75C215.491 127.2 215.644 127.584 215.95 127.902C216.256 128.208 216.634 128.361 217.084 128.361ZM221.439 124.5V125.256C221.697 124.698 222.165 124.419 222.843 124.419V125.238C222.459 125.22 222.129 125.322 221.853 125.544C221.577 125.766 221.439 126.123 221.439 126.615V129H220.656V124.5H221.439ZM227.089 125.274V122.7H227.872V129H227.089V128.226C226.705 128.82 226.138 129.117 225.388 129.117C224.752 129.117 224.215 128.889 223.777 128.433C223.333 127.971 223.111 127.41 223.111 126.75C223.111 126.096 223.333 125.538 223.777 125.076C224.221 124.614 224.758 124.383 225.388 124.383C226.138 124.383 226.705 124.68 227.089 125.274ZM225.487 128.361C225.943 128.361 226.324 128.208 226.63 127.902C226.936 127.584 227.089 127.2 227.089 126.75C227.089 126.294 226.936 125.913 226.63 125.607C226.324 125.295 225.943 125.139 225.487 125.139C225.037 125.139 224.659 125.295 224.353 125.607C224.047 125.913 223.894 126.294 223.894 126.75C223.894 127.2 224.047 127.584 224.353 127.902C224.659 128.208 225.037 128.361 225.487 128.361Z" fill="#344054"/>
<rect x="139" y="137" width="56" height="4" rx="2" fill="#E7E9EC"/>
<path d="M262.96 126.615H259.675V125.859H262.96V126.615ZM268.267 127.317C268.267 127.815 268.105 128.22 267.781 128.532C267.457 128.844 267.037 129.033 266.521 129.099V129.9H265.954V129.108C265.468 129.072 265.051 128.937 264.703 128.703C264.355 128.469 264.103 128.154 263.947 127.758L264.667 127.344C264.877 127.902 265.306 128.217 265.954 128.289V126.111C265.462 125.937 265.072 125.739 264.784 125.517C264.43 125.241 264.253 124.839 264.253 124.311C264.253 123.825 264.415 123.429 264.739 123.123C265.069 122.811 265.474 122.634 265.954 122.592V121.8H266.521V122.601C267.283 122.703 267.823 123.105 268.141 123.807L267.439 124.203C267.265 123.765 266.959 123.504 266.521 123.42V125.49C266.791 125.586 267.01 125.676 267.178 125.76C267.358 125.85 267.535 125.961 267.709 126.093C268.081 126.363 268.267 126.771 268.267 127.317ZM265.081 124.311C265.081 124.533 265.147 124.719 265.279 124.869C265.417 125.013 265.642 125.148 265.954 125.274V123.411C265.684 123.447 265.471 123.546 265.315 123.708C265.159 123.864 265.081 124.065 265.081 124.311ZM266.521 126.318V128.271C266.803 128.229 267.025 128.124 267.187 127.956C267.349 127.788 267.43 127.578 267.43 127.326C267.43 127.086 267.358 126.894 267.214 126.75C267.076 126.6 266.845 126.456 266.521 126.318ZM272.792 123.438L271.424 125.283C271.916 125.373 272.312 125.583 272.612 125.913C272.912 126.243 273.062 126.651 273.062 127.137C273.062 127.755 272.852 128.238 272.432 128.586C272.006 128.94 271.496 129.117 270.902 129.117C270.41 129.117 269.981 129.006 269.615 128.784C269.249 128.562 268.988 128.247 268.832 127.839L269.534 127.425C269.72 128.007 270.176 128.298 270.902 128.298C271.298 128.298 271.616 128.196 271.856 127.992C272.102 127.782 272.225 127.497 272.225 127.137C272.225 126.777 272.102 126.492 271.856 126.282C271.616 126.072 271.298 125.967 270.902 125.967H270.686L270.353 125.454L271.811 123.483H269.012V122.7H272.792V123.438ZM274.085 128.073H274.985L274.4 130.26H273.725L274.085 128.073ZM279.851 128.226C279.431 128.82 278.834 129.117 278.06 129.117C277.286 129.117 276.689 128.82 276.269 128.226C275.843 127.626 275.63 126.834 275.63 125.85C275.63 124.866 275.843 124.074 276.269 123.474C276.689 122.88 277.286 122.583 278.06 122.583C278.834 122.583 279.431 122.88 279.851 123.474C280.277 124.074 280.49 124.866 280.49 125.85C280.49 126.834 280.277 127.626 279.851 128.226ZM276.467 125.85C276.467 126.63 276.605 127.233 276.881 127.659C277.157 128.085 277.55 128.298 278.06 128.298C278.57 128.298 278.963 128.085 279.239 127.659C279.521 127.233 279.662 126.63 279.662 125.85C279.662 125.07 279.521 124.467 279.239 124.041C278.963 123.609 278.57 123.393 278.06 123.393C277.55 123.393 277.157 123.606 276.881 124.032C276.605 124.458 276.467 125.064 276.467 125.85ZM285.52 128.226C285.1 128.82 284.503 129.117 283.729 129.117C282.955 129.117 282.358 128.82 281.938 128.226C281.512 127.626 281.299 126.834 281.299 125.85C281.299 124.866 281.512 124.074 281.938 123.474C282.358 122.88 282.955 122.583 283.729 122.583C284.503 122.583 285.1 122.88 285.52 123.474C285.946 124.074 286.159 124.866 286.159 125.85C286.159 126.834 285.946 127.626 285.52 128.226ZM282.136 125.85C282.136 126.63 282.274 127.233 282.55 127.659C282.826 128.085 283.219 128.298 283.729 128.298C284.239 128.298 284.632 128.085 284.908 127.659C285.19 127.233 285.331 126.63 285.331 125.85C285.331 125.07 285.19 124.467 284.908 124.041C284.632 123.609 284.239 123.393 283.729 123.393C283.219 123.393 282.826 123.606 282.55 124.032C282.274 124.458 282.136 125.064 282.136 125.85ZM291.188 128.226C290.769 128.82 290.172 129.117 289.398 129.117C288.624 129.117 288.027 128.82 287.607 128.226C287.181 127.626 286.968 126.834 286.968 125.85C286.968 124.866 287.181 124.074 287.607 123.474C288.027 122.88 288.624 122.583 289.398 122.583C290.172 122.583 290.769 122.88 291.188 123.474C291.615 124.074 291.828 124.866 291.828 125.85C291.828 126.834 291.615 127.626 291.188 128.226ZM287.805 125.85C287.805 126.63 287.943 127.233 288.219 127.659C288.495 128.085 288.888 128.298 289.398 128.298C289.908 128.298 290.301 128.085 290.577 127.659C290.859 127.233 291 126.63 291 125.85C291 125.07 290.859 124.467 290.577 124.041C290.301 123.609 289.908 123.393 289.398 123.393C288.888 123.393 288.495 123.606 288.219 124.032C287.943 124.458 287.805 125.064 287.805 125.85Z" fill="#344054"/>
<rect x="237" y="137" width="56" height="4" rx="2" fill="#E2E4E7"/>
<rect x="95.2917" y="109.292" width="209.417" height="43.4167" rx="4.375" stroke="#D0D5DD" stroke-width="0.583333"/>
<rect x="44.2917" y="85.2917" width="318.417" height="43.4167" rx="4.375" fill="white"/>
<rect x="56" y="97" width="20" height="20" rx="10" fill="#F3F9FF"/>
<g clip-path="url(#clip1_217_2091)">
<path d="M60.6211 109.587L68.5878 101.62M65.4018 111.187L66.2018 110.387M67.1964 109.393L68.7898 107.799" stroke="#046ED1" stroke-miterlimit="10" stroke-linecap="round" stroke-linejoin="round"/>
<path d="M59.3322 113.665H72.6655M60.3995 105.826L64.8262 101.399C66.2395 99.9862 66.9462 99.9795 68.3462 101.379L71.6195 104.653C73.0195 106.053 73.0129 106.759 71.5995 108.173L67.1729 112.599C65.7595 114.013 65.0529 114.019 63.6529 112.619L60.3795 109.346C58.9795 107.946 58.9795 107.246 60.3995 105.826Z" stroke="#046ED1" stroke-linecap="round" stroke-linejoin="round"/>
</g>
<path d="M91.006 105H90.034L88.225 98.7H89.107L90.547 103.884L92.077 98.7H92.923L94.453 103.884L95.893 98.7H96.775L94.966 105H93.994L92.5 99.969L91.006 105ZM97.8142 99.681C97.6642 99.681 97.5382 99.63 97.4362 99.528C97.3342 99.426 97.2832 99.303 97.2832 99.159C97.2832 99.015 97.3342 98.892 97.4362 98.79C97.5382 98.682 97.6642 98.628 97.8142 98.628C97.9582 98.628 98.0812 98.682 98.1832 98.79C98.2852 98.892 98.3362 99.015 98.3362 99.159C98.3362 99.303 98.2852 99.426 98.1832 99.528C98.0812 99.63 97.9582 99.681 97.8142 99.681ZM98.2012 105H97.4182V100.5H98.2012V105ZM101.844 100.5V101.256H100.647V103.695C100.647 103.917 100.689 104.076 100.773 104.172C100.863 104.262 100.998 104.31 101.178 104.316C101.358 104.316 101.58 104.31 101.844 104.298V105C101.154 105.09 100.65 105.033 100.332 104.829C100.02 104.625 99.8638 104.247 99.8638 103.695V101.256H98.9728V100.5H99.8638V99.474L100.647 99.24V100.5H101.844ZM105.012 100.383C105.54 100.383 105.963 100.551 106.281 100.887C106.599 101.217 106.758 101.667 106.758 102.237V105H105.975V102.282C105.975 101.922 105.876 101.64 105.678 101.436C105.48 101.232 105.207 101.13 104.859 101.13C104.457 101.13 104.139 101.256 103.905 101.508C103.671 101.754 103.554 102.123 103.554 102.615V105H102.771V98.7H103.554V101.148C103.866 100.638 104.352 100.383 105.012 100.383ZM111.577 101.274V98.7H112.36V105H111.577V104.226C111.193 104.82 110.626 105.117 109.876 105.117C109.24 105.117 108.703 104.889 108.265 104.433C107.821 103.971 107.599 103.41 107.599 102.75C107.599 102.096 107.821 101.538 108.265 101.076C108.709 100.614 109.246 100.383 109.876 100.383C110.626 100.383 111.193 100.68 111.577 101.274ZM109.975 104.361C110.431 104.361 110.812 104.208 111.118 103.902C111.424 103.584 111.577 103.2 111.577 102.75C111.577 102.294 111.424 101.913 111.118 101.607C110.812 101.295 110.431 101.139 109.975 101.139C109.525 101.139 109.147 101.295 108.841 101.607C108.535 101.913 108.382 102.294 108.382 102.75C108.382 103.2 108.535 103.584 108.841 103.902C109.147 104.208 109.525 104.361 109.975 104.361ZM114.329 100.5V101.256C114.587 100.698 115.055 100.419 115.733 100.419V101.238C115.349 101.22 115.019 101.322 114.743 101.544C114.467 101.766 114.329 102.123 114.329 102.615V105H113.546V100.5H114.329ZM120.573 103.11H116.802C116.88 103.506 117.063 103.818 117.351 104.046C117.639 104.268 117.999 104.379 118.431 104.379C119.025 104.379 119.457 104.16 119.727 103.722L120.393 104.1C119.949 104.778 119.289 105.117 118.413 105.117C117.705 105.117 117.123 104.895 116.667 104.451C116.223 103.995 116.001 103.428 116.001 102.75C116.001 102.066 116.22 101.502 116.658 101.058C117.096 100.608 117.663 100.383 118.359 100.383C119.019 100.383 119.556 100.617 119.97 101.085C120.39 101.541 120.6 102.099 120.6 102.759C120.6 102.873 120.591 102.99 120.573 103.11ZM118.359 101.121C117.945 101.121 117.597 101.238 117.315 101.472C117.039 101.706 116.868 102.024 116.802 102.426H119.808C119.742 102.012 119.577 101.691 119.313 101.463C119.049 101.235 118.731 101.121 118.359 101.121ZM125.635 103.929L126.625 100.5H127.444L126.049 105H125.248L124.195 101.67L123.142 105H122.341L120.946 100.5H121.765L122.755 103.92L123.817 100.5H124.573L125.635 103.929ZM132.948 100.5V101.256H131.751V103.695C131.751 103.917 131.793 104.076 131.877 104.172C131.967 104.262 132.102 104.31 132.282 104.316C132.462 104.316 132.684 104.31 132.948 104.298V105C132.258 105.09 131.754 105.033 131.436 104.829C131.124 104.625 130.968 104.247 130.968 103.695V101.256H130.077V100.5H130.968V99.474L131.751 99.24V100.5H132.948ZM137.445 104.433C136.989 104.889 136.428 105.117 135.762 105.117C135.096 105.117 134.535 104.889 134.079 104.433C133.623 103.977 133.395 103.416 133.395 102.75C133.395 102.084 133.623 101.523 134.079 101.067C134.535 100.611 135.096 100.383 135.762 100.383C136.428 100.383 136.989 100.611 137.445 101.067C137.907 101.529 138.138 102.09 138.138 102.75C138.138 103.41 137.907 103.971 137.445 104.433ZM135.762 104.352C136.212 104.352 136.59 104.199 136.896 103.893C137.202 103.587 137.355 103.206 137.355 102.75C137.355 102.294 137.202 101.913 136.896 101.607C136.59 101.301 136.212 101.148 135.762 101.148C135.318 101.148 134.943 101.301 134.637 101.607C134.331 101.913 134.178 102.294 134.178 102.75C134.178 103.206 134.331 103.587 134.637 103.893C134.943 104.199 135.318 104.352 135.762 104.352ZM144.317 101.877H147.467V102.255C147.467 103.077 147.185 103.761 146.621 104.307C146.057 104.847 145.31 105.117 144.38 105.117C143.42 105.117 142.625 104.802 141.995 104.172C141.371 103.53 141.059 102.756 141.059 101.85C141.059 100.944 141.371 100.173 141.995 99.537C142.625 98.901 143.414 98.583 144.362 98.583C144.938 98.583 145.472 98.724 145.964 99.006C146.462 99.288 146.837 99.654 147.089 100.104L146.369 100.527C146.189 100.185 145.916 99.912 145.55 99.708C145.184 99.498 144.785 99.393 144.353 99.393C143.627 99.393 143.036 99.63 142.58 100.104C142.118 100.578 141.887 101.16 141.887 101.85C141.887 102.54 142.118 103.122 142.58 103.596C143.048 104.064 143.651 104.298 144.389 104.298C145.007 104.298 145.511 104.148 145.901 103.848C146.297 103.542 146.54 103.137 146.63 102.633H144.317V101.877ZM148.8 99.681C148.65 99.681 148.524 99.63 148.422 99.528C148.32 99.426 148.269 99.303 148.269 99.159C148.269 99.015 148.32 98.892 148.422 98.79C148.524 98.682 148.65 98.628 148.8 98.628C148.944 98.628 149.067 98.682 149.169 98.79C149.271 98.892 149.322 99.015 149.322 99.159C149.322 99.303 149.271 99.426 149.169 99.528C149.067 99.63 148.944 99.681 148.8 99.681ZM149.187 105H148.404V100.5H149.187V105ZM152.694 98.583V99.339C151.902 99.273 151.506 99.615 151.506 100.365V100.5H152.694V101.256H151.506V105H150.723V101.256H150.003V100.5H150.723V100.365C150.723 99.753 150.894 99.294 151.236 98.988C151.578 98.676 152.064 98.541 152.694 98.583ZM155.905 100.5V101.256H154.708V103.695C154.708 103.917 154.75 104.076 154.834 104.172C154.924 104.262 155.059 104.31 155.239 104.316C155.419 104.316 155.641 104.31 155.905 104.298V105C155.215 105.09 154.711 105.033 154.393 104.829C154.081 104.625 153.925 104.247 153.925 103.695V101.256H153.034V100.5H153.925V99.474L154.708 99.24V100.5H155.905ZM161.224 105.117C160.546 105.117 159.982 104.892 159.532 104.442C159.082 103.986 158.857 103.422 158.857 102.75C158.857 102.078 159.082 101.517 159.532 101.067C159.982 100.611 160.546 100.383 161.224 100.383C161.668 100.383 162.067 100.491 162.421 100.707C162.775 100.917 163.039 101.202 163.213 101.562L162.556 101.94C162.442 101.7 162.265 101.508 162.025 101.364C161.791 101.22 161.524 101.148 161.224 101.148C160.774 101.148 160.396 101.301 160.09 101.607C159.79 101.919 159.64 102.3 159.64 102.75C159.64 103.194 159.79 103.572 160.09 103.884C160.396 104.19 160.774 104.343 161.224 104.343C161.524 104.343 161.794 104.274 162.034 104.136C162.274 103.992 162.457 103.8 162.583 103.56L163.249 103.947C163.051 104.307 162.772 104.592 162.412 104.802C162.052 105.012 161.656 105.117 161.224 105.117ZM167.686 101.274V100.5H168.469V105H167.686V104.226C167.302 104.82 166.735 105.117 165.985 105.117C165.349 105.117 164.812 104.889 164.374 104.433C163.93 103.971 163.708 103.41 163.708 102.75C163.708 102.096 163.93 101.538 164.374 101.076C164.818 100.614 165.355 100.383 165.985 100.383C166.735 100.383 167.302 100.68 167.686 101.274ZM166.084 104.361C166.54 104.361 166.921 104.208 167.227 103.902C167.533 103.584 167.686 103.2 167.686 102.75C167.686 102.294 167.533 101.913 167.227 101.607C166.921 101.295 166.54 101.139 166.084 101.139C165.634 101.139 165.256 101.295 164.95 101.607C164.644 101.913 164.491 102.294 164.491 102.75C164.491 103.2 164.644 103.584 164.95 103.902C165.256 104.208 165.634 104.361 166.084 104.361ZM170.439 100.5V101.256C170.697 100.698 171.165 100.419 171.843 100.419V101.238C171.459 101.22 171.129 101.322 170.853 101.544C170.577 101.766 170.439 102.123 170.439 102.615V105H169.656V100.5H170.439ZM176.089 101.274V98.7H176.872V105H176.089V104.226C175.705 104.82 175.138 105.117 174.388 105.117C173.752 105.117 173.215 104.889 172.777 104.433C172.333 103.971 172.111 103.41 172.111 102.75C172.111 102.096 172.333 101.538 172.777 101.076C173.221 100.614 173.758 100.383 174.388 100.383C175.138 100.383 175.705 100.68 176.089 101.274ZM174.487 104.361C174.943 104.361 175.324 104.208 175.63 103.902C175.936 103.584 176.089 103.2 176.089 102.75C176.089 102.294 175.936 101.913 175.63 101.607C175.324 101.295 174.943 101.139 174.487 101.139C174.037 101.139 173.659 101.295 173.353 101.607C173.047 101.913 172.894 102.294 172.894 102.75C172.894 103.2 173.047 103.584 173.353 103.902C173.659 104.208 174.037 104.361 174.487 104.361Z" fill="#344054"/>
<rect x="88" y="113" width="56" height="4" rx="2" fill="#E7E9EC"/>
<path d="M320.96 102.615H317.675V101.859H320.96V102.615ZM326.267 103.317C326.267 103.815 326.105 104.22 325.781 104.532C325.457 104.844 325.037 105.033 324.521 105.099V105.9H323.954V105.108C323.468 105.072 323.051 104.937 322.703 104.703C322.355 104.469 322.103 104.154 321.947 103.758L322.667 103.344C322.877 103.902 323.306 104.217 323.954 104.289V102.111C323.462 101.937 323.072 101.739 322.784 101.517C322.43 101.241 322.253 100.839 322.253 100.311C322.253 99.825 322.415 99.429 322.739 99.123C323.069 98.811 323.474 98.634 323.954 98.592V97.8H324.521V98.601C325.283 98.703 325.823 99.105 326.141 99.807L325.439 100.203C325.265 99.765 324.959 99.504 324.521 99.42V101.49C324.791 101.586 325.01 101.676 325.178 101.76C325.358 101.85 325.535 101.961 325.709 102.093C326.081 102.363 326.267 102.771 326.267 103.317ZM323.081 100.311C323.081 100.533 323.147 100.719 323.279 100.869C323.417 101.013 323.642 101.148 323.954 101.274V99.411C323.684 99.447 323.471 99.546 323.315 99.708C323.159 99.864 323.081 100.065 323.081 100.311ZM324.521 102.318V104.271C324.803 104.229 325.025 104.124 325.187 103.956C325.349 103.788 325.43 103.578 325.43 103.326C325.43 103.086 325.358 102.894 325.214 102.75C325.076 102.6 324.845 102.456 324.521 102.318ZM330.792 99.438L329.424 101.283C329.916 101.373 330.312 101.583 330.612 101.913C330.912 102.243 331.062 102.651 331.062 103.137C331.062 103.755 330.852 104.238 330.432 104.586C330.006 104.94 329.496 105.117 328.902 105.117C328.41 105.117 327.981 105.006 327.615 104.784C327.249 104.562 326.988 104.247 326.832 103.839L327.534 103.425C327.72 104.007 328.176 104.298 328.902 104.298C329.298 104.298 329.616 104.196 329.856 103.992C330.102 103.782 330.225 103.497 330.225 103.137C330.225 102.777 330.102 102.492 329.856 102.282C329.616 102.072 329.298 101.967 328.902 101.967H328.686L328.353 101.454L329.811 99.483H327.012V98.7H330.792V99.438ZM332.085 104.073H332.985L332.4 106.26H331.725L332.085 104.073ZM337.851 104.226C337.431 104.82 336.834 105.117 336.06 105.117C335.286 105.117 334.689 104.82 334.269 104.226C333.843 103.626 333.63 102.834 333.63 101.85C333.63 100.866 333.843 100.074 334.269 99.474C334.689 98.88 335.286 98.583 336.06 98.583C336.834 98.583 337.431 98.88 337.851 99.474C338.277 100.074 338.49 100.866 338.49 101.85C338.49 102.834 338.277 103.626 337.851 104.226ZM334.467 101.85C334.467 102.63 334.605 103.233 334.881 103.659C335.157 104.085 335.55 104.298 336.06 104.298C336.57 104.298 336.963 104.085 337.239 103.659C337.521 103.233 337.662 102.63 337.662 101.85C337.662 101.07 337.521 100.467 337.239 100.041C336.963 99.609 336.57 99.393 336.06 99.393C335.55 99.393 335.157 99.606 334.881 100.032C334.605 100.458 334.467 101.064 334.467 101.85ZM343.52 104.226C343.1 104.82 342.503 105.117 341.729 105.117C340.955 105.117 340.358 104.82 339.938 104.226C339.512 103.626 339.299 102.834 339.299 101.85C339.299 100.866 339.512 100.074 339.938 99.474C340.358 98.88 340.955 98.583 341.729 98.583C342.503 98.583 343.1 98.88 343.52 99.474C343.946 100.074 344.159 100.866 344.159 101.85C344.159 102.834 343.946 103.626 343.52 104.226ZM340.136 101.85C340.136 102.63 340.274 103.233 340.55 103.659C340.826 104.085 341.219 104.298 341.729 104.298C342.239 104.298 342.632 104.085 342.908 103.659C343.19 103.233 343.331 102.63 343.331 101.85C343.331 101.07 343.19 100.467 342.908 100.041C342.632 99.609 342.239 99.393 341.729 99.393C341.219 99.393 340.826 99.606 340.55 100.032C340.274 100.458 340.136 101.064 340.136 101.85ZM349.188 104.226C348.769 104.82 348.172 105.117 347.398 105.117C346.624 105.117 346.027 104.82 345.607 104.226C345.181 103.626 344.968 102.834 344.968 101.85C344.968 100.866 345.181 100.074 345.607 99.474C346.027 98.88 346.624 98.583 347.398 98.583C348.172 98.583 348.769 98.88 349.188 99.474C349.615 100.074 349.828 100.866 349.828 101.85C349.828 102.834 349.615 103.626 349.188 104.226ZM345.805 101.85C345.805 102.63 345.943 103.233 346.219 103.659C346.495 104.085 346.888 104.298 347.398 104.298C347.908 104.298 348.301 104.085 348.577 103.659C348.859 103.233 349 102.63 349 101.85C349 101.07 348.859 100.467 348.577 100.041C348.301 99.609 347.908 99.393 347.398 99.393C346.888 99.393 346.495 99.606 346.219 100.032C345.943 100.458 345.805 101.064 345.805 101.85Z" fill="#344054"/>
<rect x="295" y="113" width="56" height="4" rx="2" fill="#E2E4E7"/>
<rect x="44.2917" y="85.2917" width="318.417" height="43.4167" rx="4.375" stroke="#D0D5DD" stroke-width="0.583333"/>
<g filter="url(#filter0_d_217_2091)">
<rect y="37" width="388" height="63" rx="4.66667" fill="white"/>
<rect x="12" y="50.5" width="20" height="20" rx="10" fill="#F3F9FF"/>
<path d="M22.4419 54.1787L22.4219 54.2253L20.4886 58.712H18.5886C18.1353 58.712 17.7019 58.8053 17.3086 58.972L18.4753 56.1853L18.5019 56.1187L18.5486 56.012C18.5619 55.972 18.5753 55.932 18.5953 55.8987C19.4686 53.8787 20.4553 53.4187 22.4419 54.1787Z" stroke="#046ED1" stroke-linecap="round" stroke-linejoin="round"/>
<path d="M26.0349 58.8454C25.7349 58.752 25.4149 58.712 25.0949 58.712H20.4883L22.4216 54.2254L22.4416 54.1787C22.5416 54.212 22.6349 54.2587 22.7349 54.2987L24.2083 54.9187C25.0283 55.2587 25.6016 55.612 25.9483 56.0387C26.0149 56.1187 26.0683 56.192 26.1149 56.2787C26.1749 56.372 26.2216 56.4654 26.2483 56.5654C26.2749 56.6254 26.2949 56.6854 26.3083 56.7387C26.4883 57.2987 26.3816 57.9854 26.0349 58.8454Z" stroke="#046ED1" stroke-linecap="round" stroke-linejoin="round"/>
<path d="M28.3465 61.9652V63.2652C28.3465 63.3986 28.3398 63.5319 28.3332 63.6652C28.2065 65.9919 26.9065 67.1652 24.4398 67.1652H19.2398C19.0798 67.1652 18.9198 67.1519 18.7665 67.1319C16.6465 66.9919 15.5132 65.8586 15.3732 63.7386C15.3532 63.5852 15.3398 63.4252 15.3398 63.2652V61.9652C15.3398 60.6252 16.1532 59.4719 17.3132 58.9719C17.7132 58.8052 18.1398 58.7119 18.5932 58.7119H25.0998C25.4265 58.7119 25.7465 58.7586 26.0398 58.8452C27.3665 59.2519 28.3465 60.4919 28.3465 61.9652Z" stroke="#046ED1" stroke-linecap="round" stroke-linejoin="round"/>
<path d="M18.472 56.1853L17.3054 58.972C16.7201 59.2237 16.2214 59.6414 15.8707 60.1733C15.52 60.7052 15.3328 61.3282 15.332 61.9653V60.012C15.332 58.1186 16.6787 56.5386 18.472 56.1853ZM28.3447 60.012V61.9653C28.3447 60.4986 27.3714 59.252 26.038 58.852C26.3847 57.9853 26.4847 57.3053 26.318 56.7386C26.3047 56.6786 26.2847 56.6186 26.258 56.5653C27.498 57.2053 28.3447 58.5186 28.3447 60.012Z" stroke="#046ED1" stroke-linecap="round" stroke-linejoin="round"/>
<path d="M48.676 62.5H47.164L44.35 52.7H45.722L47.962 60.764L50.342 52.7H51.658L54.038 60.764L56.278 52.7H57.65L54.836 62.5H53.324L51 54.674L48.676 62.5ZM59.2666 54.226C59.0332 54.226 58.8372 54.1467 58.6786 53.988C58.5199 53.8293 58.4406 53.638 58.4406 53.414C58.4406 53.19 58.5199 52.9987 58.6786 52.84C58.8372 52.672 59.0332 52.588 59.2666 52.588C59.4906 52.588 59.6819 52.672 59.8406 52.84C59.9992 52.9987 60.0786 53.19 60.0786 53.414C60.0786 53.638 59.9992 53.8293 59.8406 53.988C59.6819 54.1467 59.4906 54.226 59.2666 54.226ZM59.8686 62.5H58.6506V55.5H59.8686V62.5ZM65.5347 55.5V56.676H63.6727V60.47C63.6727 60.8153 63.7381 61.0627 63.8687 61.212C64.0087 61.352 64.2187 61.4267 64.4987 61.436C64.7787 61.436 65.1241 61.4267 65.5347 61.408V62.5C64.4614 62.64 63.6774 62.5513 63.1827 62.234C62.6974 61.9167 62.4547 61.3287 62.4547 60.47V56.676H61.0687V55.5H62.4547V53.904L63.6727 53.54V55.5H65.5347ZM70.4627 55.318C71.2841 55.318 71.9421 55.5793 72.4367 56.102C72.9314 56.6153 73.1787 57.3153 73.1787 58.202V62.5H71.9607V58.272C71.9607 57.712 71.8067 57.2733 71.4987 56.956C71.1907 56.6387 70.7661 56.48 70.2247 56.48C69.5994 56.48 69.1047 56.676 68.7407 57.068C68.3767 57.4507 68.1947 58.0247 68.1947 58.79V62.5H66.9767V52.7H68.1947V56.508C68.6801 55.7147 69.4361 55.318 70.4627 55.318ZM80.6751 56.704V52.7H81.8931V62.5H80.6751V61.296C80.0777 62.22 79.1957 62.682 78.0291 62.682C77.0397 62.682 76.2044 62.3273 75.5231 61.618C74.8324 60.8993 74.4871 60.0267 74.4871 59C74.4871 57.9827 74.8324 57.1147 75.5231 56.396C76.2137 55.6773 77.0491 55.318 78.0291 55.318C79.1957 55.318 80.0777 55.78 80.6751 56.704ZM78.1831 61.506C78.8924 61.506 79.4851 61.268 79.9611 60.792C80.4371 60.2973 80.6751 59.7 80.6751 59C80.6751 58.2907 80.4371 57.698 79.9611 57.222C79.4851 56.7367 78.8924 56.494 78.1831 56.494C77.4831 56.494 76.8951 56.7367 76.4191 57.222C75.9431 57.698 75.7051 58.2907 75.7051 59C75.7051 59.7 75.9431 60.2973 76.4191 60.792C76.8951 61.268 77.4831 61.506 78.1831 61.506ZM84.9565 55.5V56.676C85.3578 55.808 86.0858 55.374 87.1405 55.374V56.648C86.5431 56.62 86.0298 56.7787 85.6005 57.124C85.1711 57.4693 84.9565 58.0247 84.9565 58.79V62.5H83.7385V55.5H84.9565ZM94.6694 59.56H88.8034C88.9247 60.176 89.2094 60.6613 89.6574 61.016C90.1054 61.3613 90.6654 61.534 91.3374 61.534C92.2614 61.534 92.9334 61.1933 93.3534 60.512L94.3894 61.1C93.6987 62.1547 92.6721 62.682 91.3094 62.682C90.2081 62.682 89.3027 62.3367 88.5934 61.646C87.9027 60.9367 87.5574 60.0547 87.5574 59C87.5574 57.936 87.8981 57.0587 88.5794 56.368C89.2607 55.668 90.1427 55.318 91.2254 55.318C92.2521 55.318 93.0874 55.682 93.7314 56.41C94.3847 57.1193 94.7114 57.9873 94.7114 59.014C94.7114 59.1913 94.6974 59.3733 94.6694 59.56ZM91.2254 56.466C90.5814 56.466 90.0401 56.648 89.6014 57.012C89.1721 57.376 88.9061 57.8707 88.8034 58.496H93.4794C93.3767 57.852 93.1201 57.3527 92.7094 56.998C92.2987 56.6433 91.8041 56.466 91.2254 56.466ZM102.544 60.834L104.084 55.5H105.358L103.188 62.5H101.942L100.304 57.32L98.6661 62.5H97.4201L95.2501 55.5H96.5241L98.0641 60.82L99.7161 55.5H100.892L102.544 60.834ZM113.92 55.5V56.676H112.058V60.47C112.058 60.8153 112.123 61.0627 112.254 61.212C112.394 61.352 112.604 61.4267 112.883 61.436C113.163 61.436 113.509 61.4267 113.92 61.408V62.5C112.846 62.64 112.062 62.5513 111.568 62.234C111.082 61.9167 110.84 61.3287 110.84 60.47V56.676H109.454V55.5H110.84V53.904L112.058 53.54V55.5H113.92ZM120.914 61.618C120.205 62.3273 119.332 62.682 118.296 62.682C117.26 62.682 116.387 62.3273 115.678 61.618C114.969 60.9087 114.614 60.036 114.614 59C114.614 57.964 114.969 57.0913 115.678 56.382C116.387 55.6727 117.26 55.318 118.296 55.318C119.332 55.318 120.205 55.6727 120.914 56.382C121.633 57.1007 121.992 57.9733 121.992 59C121.992 60.0267 121.633 60.8993 120.914 61.618ZM118.296 61.492C118.996 61.492 119.584 61.254 120.06 60.778C120.536 60.302 120.774 59.7093 120.774 59C120.774 58.2907 120.536 57.698 120.06 57.222C119.584 56.746 118.996 56.508 118.296 56.508C117.605 56.508 117.022 56.746 116.546 57.222C116.07 57.698 115.832 58.2907 115.832 59C115.832 59.7093 116.07 60.302 116.546 60.778C117.022 61.254 117.605 61.492 118.296 61.492ZM133.634 60.834L135.174 55.5H136.448L134.278 62.5H133.032L131.394 57.32L129.756 62.5H128.51L126.34 55.5H127.614L129.154 60.82L130.806 55.5H131.982L133.634 60.834ZM143.224 56.704V55.5H144.442V62.5H143.224V61.296C142.627 62.22 141.745 62.682 140.578 62.682C139.589 62.682 138.753 62.3273 138.072 61.618C137.381 60.8993 137.036 60.0267 137.036 59C137.036 57.9827 137.381 57.1147 138.072 56.396C138.763 55.6773 139.598 55.318 140.578 55.318C141.745 55.318 142.627 55.78 143.224 56.704ZM140.732 61.506C141.441 61.506 142.034 61.268 142.51 60.792C142.986 60.2973 143.224 59.7 143.224 59C143.224 58.2907 142.986 57.698 142.51 57.222C142.034 56.7367 141.441 56.494 140.732 56.494C140.032 56.494 139.444 56.7367 138.968 57.222C138.492 57.698 138.254 58.2907 138.254 59C138.254 59.7 138.492 60.2973 138.968 60.792C139.444 61.268 140.032 61.506 140.732 61.506ZM147.505 62.5H146.287V52.28H147.505V62.5ZM150.581 62.5H149.363V52.28H150.581V62.5ZM159.16 59.56H153.294C153.415 60.176 153.7 60.6613 154.148 61.016C154.596 61.3613 155.156 61.534 155.828 61.534C156.752 61.534 157.424 61.1933 157.844 60.512L158.88 61.1C158.189 62.1547 157.162 62.682 155.8 62.682C154.698 62.682 153.793 62.3367 153.084 61.646C152.393 60.9367 152.048 60.0547 152.048 59C152.048 57.936 152.388 57.0587 153.07 56.368C153.751 55.668 154.633 55.318 155.716 55.318C156.742 55.318 157.578 55.682 158.222 56.41C158.875 57.1193 159.202 57.9873 159.202 59.014C159.202 59.1913 159.188 59.3733 159.16 59.56ZM155.716 56.466C155.072 56.466 154.53 56.648 154.092 57.012C153.662 57.376 153.396 57.8707 153.294 58.496H157.97C157.867 57.852 157.61 57.3527 157.2 56.998C156.789 56.6433 156.294 56.466 155.716 56.466ZM164.205 55.5V56.676H162.343V60.47C162.343 60.8153 162.408 61.0627 162.539 61.212C162.679 61.352 162.889 61.4267 163.169 61.436C163.449 61.436 163.794 61.4267 164.205 61.408V62.5C163.131 62.64 162.347 62.5513 161.853 62.234C161.367 61.9167 161.125 61.3287 161.125 60.47V56.676H159.739V55.5H161.125V53.904L162.343 53.54V55.5H164.205ZM174.984 56.704V55.5H176.202V62.5H174.984V61.296C174.386 62.22 173.504 62.682 172.338 62.682C171.348 62.682 170.513 62.3273 169.832 61.618C169.141 60.8993 168.796 60.0267 168.796 59C168.796 57.9827 169.141 57.1147 169.832 56.396C170.522 55.6773 171.358 55.318 172.338 55.318C173.504 55.318 174.386 55.78 174.984 56.704ZM172.492 61.506C173.201 61.506 173.794 61.268 174.27 60.792C174.746 60.2973 174.984 59.7 174.984 59C174.984 58.2907 174.746 57.698 174.27 57.222C173.794 56.7367 173.201 56.494 172.492 56.494C171.792 56.494 171.204 56.7367 170.728 57.222C170.252 57.698 170.014 58.2907 170.014 59C170.014 59.7 170.252 60.2973 170.728 60.792C171.204 61.268 171.792 61.506 172.492 61.506ZM183.843 56.704V52.7H185.061V62.5H183.843V61.296C183.246 62.22 182.364 62.682 181.197 62.682C180.208 62.682 179.372 62.3273 178.691 61.618C178 60.8993 177.655 60.0267 177.655 59C177.655 57.9827 178 57.1147 178.691 56.396C179.382 55.6773 180.217 55.318 181.197 55.318C182.364 55.318 183.246 55.78 183.843 56.704ZM181.351 61.506C182.06 61.506 182.653 61.268 183.129 60.792C183.605 60.2973 183.843 59.7 183.843 59C183.843 58.2907 183.605 57.698 183.129 57.222C182.653 56.7367 182.06 56.494 181.351 56.494C180.651 56.494 180.063 56.7367 179.587 57.222C179.111 57.698 178.873 58.2907 178.873 59C178.873 59.7 179.111 60.2973 179.587 60.792C180.063 61.268 180.651 61.506 181.351 61.506ZM192.702 56.704V52.7H193.92V62.5H192.702V61.296C192.105 62.22 191.223 62.682 190.056 62.682C189.067 62.682 188.232 62.3273 187.55 61.618C186.86 60.8993 186.514 60.0267 186.514 59C186.514 57.9827 186.86 57.1147 187.55 56.396C188.241 55.6773 189.076 55.318 190.056 55.318C191.223 55.318 192.105 55.78 192.702 56.704ZM190.21 61.506C190.92 61.506 191.512 61.268 191.988 60.792C192.464 60.2973 192.702 59.7 192.702 59C192.702 58.2907 192.464 57.698 191.988 57.222C191.512 56.7367 190.92 56.494 190.21 56.494C189.51 56.494 188.922 56.7367 188.446 57.222C187.97 57.698 187.732 58.2907 187.732 59C187.732 59.7 187.97 60.2973 188.446 60.792C188.922 61.268 189.51 61.506 190.21 61.506ZM196.984 55.5V56.676C197.385 55.808 198.113 55.374 199.168 55.374V56.648C198.57 56.62 198.057 56.7787 197.628 57.124C197.198 57.4693 196.984 58.0247 196.984 58.79V62.5H195.766V55.5H196.984ZM206.697 59.56H200.831C200.952 60.176 201.237 60.6613 201.685 61.016C202.133 61.3613 202.693 61.534 203.365 61.534C204.289 61.534 204.961 61.1933 205.381 60.512L206.417 61.1C205.726 62.1547 204.699 62.682 203.337 62.682C202.235 62.682 201.33 62.3367 200.621 61.646C199.93 60.9367 199.585 60.0547 199.585 59C199.585 57.936 199.925 57.0587 200.607 56.368C201.288 55.668 202.17 55.318 203.253 55.318C204.279 55.318 205.115 55.682 205.759 56.41C206.412 57.1193 206.739 57.9873 206.739 59.014C206.739 59.1913 206.725 59.3733 206.697 59.56ZM203.253 56.466C202.609 56.466 202.067 56.648 201.629 57.012C201.199 57.376 200.933 57.8707 200.831 58.496H205.507C205.404 57.852 205.147 57.3527 204.737 56.998C204.326 56.6433 203.831 56.466 203.253 56.466ZM208.915 57.39C208.915 57.838 209.377 58.188 210.301 58.44C210.647 58.5147 210.936 58.594 211.169 58.678C211.412 58.7527 211.673 58.8693 211.953 59.028C212.243 59.1867 212.462 59.3967 212.611 59.658C212.761 59.9193 212.835 60.2273 212.835 60.582C212.835 61.2167 212.588 61.7253 212.093 62.108C211.599 62.4907 210.973 62.682 210.217 62.682C209.545 62.682 208.962 62.5373 208.467 62.248C207.982 61.9493 207.637 61.548 207.431 61.044L208.481 60.442C208.593 60.778 208.803 61.044 209.111 61.24C209.419 61.436 209.788 61.534 210.217 61.534C210.637 61.534 210.973 61.4547 211.225 61.296C211.477 61.1373 211.603 60.8993 211.603 60.582C211.603 60.106 211.141 59.7607 210.217 59.546C209.909 59.462 209.676 59.3967 209.517 59.35C209.359 59.3033 209.139 59.2193 208.859 59.098C208.589 58.9767 208.383 58.8507 208.243 58.72C208.103 58.58 207.973 58.398 207.851 58.174C207.739 57.9407 207.683 57.684 207.683 57.404C207.683 56.7973 207.917 56.298 208.383 55.906C208.859 55.514 209.452 55.318 210.161 55.318C210.731 55.318 211.235 55.4487 211.673 55.71C212.121 55.962 212.457 56.3167 212.681 56.774L211.659 57.348C211.407 56.7507 210.908 56.452 210.161 56.452C209.807 56.452 209.508 56.536 209.265 56.704C209.032 56.872 208.915 57.1007 208.915 57.39ZM214.89 57.39C214.89 57.838 215.352 58.188 216.276 58.44C216.621 58.5147 216.911 58.594 217.144 58.678C217.387 58.7527 217.648 58.8693 217.928 59.028C218.217 59.1867 218.437 59.3967 218.586 59.658C218.735 59.9193 218.81 60.2273 218.81 60.582C218.81 61.2167 218.563 61.7253 218.068 62.108C217.573 62.4907 216.948 62.682 216.192 62.682C215.52 62.682 214.937 62.5373 214.442 62.248C213.957 61.9493 213.611 61.548 213.406 61.044L214.456 60.442C214.568 60.778 214.778 61.044 215.086 61.24C215.394 61.436 215.763 61.534 216.192 61.534C216.612 61.534 216.948 61.4547 217.2 61.296C217.452 61.1373 217.578 60.8993 217.578 60.582C217.578 60.106 217.116 59.7607 216.192 59.546C215.884 59.462 215.651 59.3967 215.492 59.35C215.333 59.3033 215.114 59.2193 214.834 59.098C214.563 58.9767 214.358 58.8507 214.218 58.72C214.078 58.58 213.947 58.398 213.826 58.174C213.714 57.9407 213.658 57.684 213.658 57.404C213.658 56.7973 213.891 56.298 214.358 55.906C214.834 55.514 215.427 55.318 216.136 55.318C216.705 55.318 217.209 55.4487 217.648 55.71C218.096 55.962 218.432 56.3167 218.656 56.774L217.634 57.348C217.382 56.7507 216.883 56.452 216.136 56.452C215.781 56.452 215.483 56.536 215.24 56.704C215.007 56.872 214.89 57.1007 214.89 57.39Z" fill="#344054"/>
<path d="M47.036 82.644C46.436 82.644 45.908 82.52 45.452 82.272C44.996 82.024 44.672 81.668 44.48 81.204L45.188 80.784C45.452 81.48 46.068 81.828 47.036 81.828C47.636 81.828 48.104 81.684 48.44 81.396C48.784 81.108 48.956 80.684 48.956 80.124V74.1H49.796V80.124C49.796 80.94 49.532 81.564 49.004 81.996C48.484 82.428 47.828 82.644 47.036 82.644ZM56.5742 77.676V76.5H57.3662V82.5H56.5742V81.324C56.0222 82.204 55.2142 82.644 54.1502 82.644C53.2942 82.644 52.5622 82.34 51.9542 81.732C51.3542 81.124 51.0542 80.38 51.0542 79.5C51.0542 78.62 51.3542 77.876 51.9542 77.268C52.5622 76.66 53.2942 76.356 54.1502 76.356C55.2142 76.356 56.0222 76.796 56.5742 77.676ZM52.5302 81.192C52.9862 81.648 53.5462 81.876 54.2102 81.876C54.8742 81.876 55.4342 81.648 55.8902 81.192C56.3462 80.72 56.5742 80.156 56.5742 79.5C56.5742 78.836 56.3462 78.276 55.8902 77.82C55.4342 77.356 54.8742 77.124 54.2102 77.124C53.5462 77.124 52.9862 77.356 52.5302 77.82C52.0742 78.276 51.8462 78.836 51.8462 79.5C51.8462 80.156 52.0742 80.72 52.5302 81.192ZM61.8511 76.356C62.5711 76.356 63.1431 76.58 63.5671 77.028C63.9911 77.468 64.2031 78.064 64.2031 78.816V82.5H63.4111V78.816C63.4111 78.28 63.2671 77.864 62.9791 77.568C62.6991 77.272 62.2991 77.124 61.7791 77.124C61.1791 77.124 60.7031 77.312 60.3511 77.688C60.0071 78.064 59.8351 78.62 59.8351 79.356V82.5H59.0431V76.5H59.8351V77.436C60.2831 76.716 60.9551 76.356 61.8511 76.356ZM74.0145 81.468C73.4625 82.252 72.6825 82.644 71.6745 82.644C70.6745 82.644 69.8905 82.252 69.3225 81.468C68.7705 80.676 68.4945 79.62 68.4945 78.3C68.4945 76.972 68.7705 75.92 69.3225 75.144C69.8905 74.352 70.6745 73.956 71.6745 73.956C72.6825 73.956 73.4625 74.352 74.0145 75.144C74.5745 75.92 74.8545 76.972 74.8545 78.3C74.8545 79.628 74.5745 80.684 74.0145 81.468ZM69.9465 80.904C70.3705 81.52 70.9465 81.828 71.6745 81.828C72.4105 81.828 72.9825 81.52 73.3905 80.904C73.8065 80.296 74.0145 79.428 74.0145 78.3C74.0145 77.172 73.8065 76.304 73.3905 75.696C72.9825 75.08 72.4105 74.772 71.6745 74.772C70.9465 74.772 70.3705 75.08 69.9465 75.696C69.5385 76.312 69.3345 77.18 69.3345 78.3C69.3345 79.42 69.5385 80.288 69.9465 80.904ZM77.2171 77.484H78.6331C79.4251 77.484 80.0891 77.716 80.6251 78.18C81.1771 78.636 81.4531 79.264 81.4531 80.064C81.4531 80.856 81.1771 81.488 80.6251 81.96C80.0891 82.416 79.4251 82.644 78.6331 82.644C77.9851 82.644 77.4131 82.488 76.9171 82.176C76.4291 81.856 76.1011 81.416 75.9331 80.856L76.6411 80.448C76.7611 80.888 76.9971 81.228 77.3491 81.468C77.7011 81.708 78.1291 81.828 78.6331 81.828C79.2251 81.828 79.7011 81.672 80.0611 81.36C80.4291 81.04 80.6131 80.608 80.6131 80.064C80.6131 79.52 80.4291 79.092 80.0611 78.78C79.7011 78.46 79.2251 78.3 78.6331 78.3H76.3531L76.6531 74.1H81.1531V74.892H77.3971L77.2171 77.484ZM82.8992 81.48H83.8592L83.1392 84.18H82.4192L82.8992 81.48ZM90.762 74.868L92.982 74.1H93.702V82.5H92.862V75.024L90.978 75.588L90.762 74.868ZM100.48 82.5H95.1402V81.744L98.1642 78.696C99.0282 77.832 99.4602 77.092 99.4602 76.476C99.4602 75.956 99.2962 75.544 98.9682 75.24C98.6482 74.928 98.2482 74.772 97.7682 74.772C96.9122 74.772 96.2842 75.168 95.8842 75.96L95.1762 75.54C95.4322 75.028 95.7882 74.636 96.2442 74.364C96.7002 74.092 97.2082 73.956 97.7682 73.956C98.4402 73.956 99.0282 74.184 99.5322 74.64C100.044 75.08 100.3 75.692 100.3 76.476C100.3 76.94 100.172 77.396 99.9162 77.844C99.6602 78.284 99.2682 78.768 98.7402 79.296L96.3402 81.684H100.48V82.5ZM103.005 77.04C103.005 77.224 102.941 77.38 102.813 77.508C102.685 77.636 102.529 77.7 102.345 77.7C102.161 77.7 102.005 77.636 101.877 77.508C101.749 77.38 101.685 77.224 101.685 77.04C101.685 76.856 101.749 76.7 101.877 76.572C102.005 76.444 102.161 76.38 102.345 76.38C102.529 76.38 102.685 76.444 102.813 76.572C102.941 76.7 103.005 76.856 103.005 77.04ZM103.005 81.96C103.005 82.144 102.941 82.3 102.813 82.428C102.685 82.556 102.529 82.62 102.345 82.62C102.161 82.62 102.005 82.556 101.877 82.428C101.749 82.3 101.685 82.144 101.685 81.96C101.685 81.776 101.749 81.62 101.877 81.492C102.005 81.364 102.161 81.3 102.345 81.3C102.529 81.3 102.685 81.364 102.813 81.492C102.941 81.62 103.005 81.776 103.005 81.96ZM105.494 77.484H106.91C107.702 77.484 108.366 77.716 108.902 78.18C109.454 78.636 109.73 79.264 109.73 80.064C109.73 80.856 109.454 81.488 108.902 81.96C108.366 82.416 107.702 82.644 106.91 82.644C106.262 82.644 105.69 82.488 105.194 82.176C104.706 81.856 104.378 81.416 104.21 80.856L104.918 80.448C105.038 80.888 105.274 81.228 105.626 81.468C105.978 81.708 106.406 81.828 106.91 81.828C107.502 81.828 107.978 81.672 108.338 81.36C108.706 81.04 108.89 80.608 108.89 80.064C108.89 79.52 108.706 79.092 108.338 78.78C107.978 78.46 107.502 78.3 106.91 78.3H104.63L104.93 74.1H109.43V74.892H105.674L105.494 77.484ZM116.097 81.468C115.545 82.252 114.765 82.644 113.757 82.644C112.757 82.644 111.973 82.252 111.405 81.468C110.853 80.676 110.577 79.62 110.577 78.3C110.577 76.972 110.853 75.92 111.405 75.144C111.973 74.352 112.757 73.956 113.757 73.956C114.765 73.956 115.545 74.352 116.097 75.144C116.657 75.92 116.937 76.972 116.937 78.3C116.937 79.628 116.657 80.684 116.097 81.468ZM112.029 80.904C112.453 81.52 113.029 81.828 113.757 81.828C114.493 81.828 115.065 81.52 115.473 80.904C115.889 80.296 116.097 79.428 116.097 78.3C116.097 77.172 115.889 76.304 115.473 75.696C115.065 75.08 114.493 74.772 113.757 74.772C113.029 74.772 112.453 75.08 112.029 75.696C111.621 76.312 111.417 77.18 111.417 78.3C111.417 79.42 111.621 80.288 112.029 80.904Z" fill="#7F8691"/>
<path d="M294.832 61H288.504V59.936L291.962 56.408C292.886 55.484 293.348 54.6907 293.348 54.028C293.348 53.4867 293.18 53.062 292.844 52.754C292.517 52.4367 292.107 52.278 291.612 52.278C290.688 52.278 290.016 52.7167 289.596 53.594L288.504 52.95C288.803 52.3247 289.223 51.8487 289.764 51.522C290.305 51.186 290.917 51.018 291.598 51.018C292.429 51.018 293.143 51.2887 293.74 51.83C294.347 52.3807 294.65 53.1087 294.65 54.014C294.65 55.0033 294.067 56.0813 292.9 57.248L290.394 59.74H294.832V61ZM301.773 57.92H302.963V59.138H301.773V61H300.471V59.138H295.473V57.92L298.987 51.2H300.387L296.873 57.92H300.471V55.148H301.773V57.92ZM307.01 51.2H314.08V52.432H311.182V61H309.894V52.432H307.01V51.2ZM321.01 51.2V52.432H316.67V55.61H320.828V56.842H316.67V61H315.368V51.2H321.01ZM322.461 57.71V51.2H323.763V57.654C323.763 58.354 323.968 58.9047 324.379 59.306C324.799 59.7073 325.387 59.908 326.143 59.908C326.899 59.908 327.482 59.7073 327.893 59.306C328.313 58.9047 328.523 58.354 328.523 57.654V51.2H329.811V57.71C329.811 58.774 329.47 59.6187 328.789 60.244C328.108 60.8693 327.226 61.182 326.143 61.182C325.051 61.182 324.164 60.8693 323.483 60.244C322.802 59.6187 322.461 58.774 322.461 57.71ZM333.104 56.66V59.768H337.654V61H331.802V51.2H337.584V52.432H333.104V55.442H337.234V56.66H333.104ZM340.528 51.2V59.768H344.756V61H339.226V51.2H340.528Z" fill="#344054"/>
<path d="M356.688 54.032L357.408 54.368C356.968 55.792 355.96 56.048 354.384 55.136C353.768 54.784 353.32 54.652 353.04 54.74C352.776 54.82 352.576 55.096 352.44 55.568L351.72 55.232C351.936 54.544 352.296 54.132 352.8 53.996C353.304 53.86 353.952 54.016 354.744 54.464C355.144 54.712 355.476 54.852 355.74 54.884C356.004 54.908 356.204 54.852 356.34 54.716C356.484 54.572 356.6 54.344 356.688 54.032ZM364.245 56.816C364.245 57.44 364.033 57.964 363.609 58.388C363.193 58.804 362.645 59.048 361.965 59.12V60.2H361.245V59.132C360.597 59.092 360.045 58.92 359.589 58.616C359.133 58.312 358.805 57.904 358.605 57.392L359.325 56.972C359.621 57.788 360.261 58.236 361.245 58.316V55.004C360.597 54.78 360.081 54.524 359.697 54.236C359.249 53.9 359.025 53.384 359.025 52.688C359.025 52.064 359.233 51.556 359.649 51.164C360.081 50.756 360.613 50.524 361.245 50.468V49.4H361.965V50.48C362.445 50.536 362.865 50.696 363.225 50.96C363.593 51.224 363.873 51.58 364.065 52.028L363.357 52.424C363.109 51.792 362.645 51.42 361.965 51.308V54.428C362.637 54.652 363.161 54.916 363.537 55.22C364.009 55.588 364.245 56.12 364.245 56.816ZM359.865 52.688C359.865 53.04 359.969 53.328 360.177 53.552C360.393 53.768 360.749 53.972 361.245 54.164V51.296C360.829 51.344 360.493 51.492 360.237 51.74C359.989 51.988 359.865 52.304 359.865 52.688ZM361.965 55.256V58.304C362.413 58.24 362.765 58.076 363.021 57.812C363.277 57.548 363.405 57.216 363.405 56.816C363.405 56.44 363.289 56.136 363.057 55.904C362.833 55.672 362.469 55.456 361.965 55.256ZM364.903 51.368L367.123 50.6H367.843V59H367.003V51.524L365.119 52.088L364.903 51.368ZM374.621 59H369.281V58.244L372.305 55.196C373.169 54.332 373.601 53.592 373.601 52.976C373.601 52.456 373.437 52.044 373.109 51.74C372.789 51.428 372.389 51.272 371.909 51.272C371.053 51.272 370.425 51.668 370.025 52.46L369.317 52.04C369.573 51.528 369.929 51.136 370.385 50.864C370.841 50.592 371.349 50.456 371.909 50.456C372.581 50.456 373.169 50.684 373.673 51.14C374.185 51.58 374.441 52.192 374.441 52.976C374.441 53.44 374.313 53.896 374.057 54.344C373.801 54.784 373.409 55.268 372.881 55.796L370.481 58.184H374.621V59Z" fill="#7F8691"/>
<path d="M313.2 83.168C312.304 83.168 311.534 82.958 310.89 82.538C310.255 82.1087 309.812 81.5207 309.56 80.774L310.4 80.284C310.577 80.9 310.904 81.376 311.38 81.712C311.865 82.048 312.477 82.216 313.214 82.216C313.933 82.216 314.497 82.0573 314.908 81.74C315.319 81.4227 315.524 80.9933 315.524 80.452C315.524 79.9387 315.337 79.5513 314.964 79.29C314.6 79.0287 313.984 78.758 313.116 78.478C312.08 78.1327 311.408 77.862 311.1 77.666C310.353 77.218 309.98 76.5693 309.98 75.72C309.98 74.8893 310.269 74.236 310.848 73.76C311.417 73.2747 312.131 73.032 312.99 73.032C313.727 73.032 314.381 73.228 314.95 73.62C315.519 74.0027 315.944 74.5113 316.224 75.146L315.398 75.608C314.95 74.5253 314.147 73.984 312.99 73.984C312.374 73.984 311.879 74.138 311.506 74.446C311.142 74.7447 310.96 75.1553 310.96 75.678C310.96 76.1727 311.128 76.5367 311.464 76.77C311.809 77.0127 312.365 77.26 313.13 77.512L313.886 77.778C314.045 77.8247 314.269 77.9087 314.558 78.03C314.875 78.1513 315.095 78.254 315.216 78.338C315.711 78.6367 316.023 78.912 316.154 79.164C316.387 79.5373 316.504 79.9573 316.504 80.424C316.504 81.2547 316.201 81.922 315.594 82.426C314.987 82.9207 314.189 83.168 313.2 83.168ZM322.974 79.668V76H323.898V83H322.974V81.908C322.452 82.748 321.668 83.168 320.622 83.168C319.782 83.168 319.115 82.9113 318.62 82.398C318.126 81.8753 317.878 81.1753 317.878 80.298V76H318.802V80.298C318.802 80.9233 318.966 81.4087 319.292 81.754C319.628 82.0993 320.1 82.272 320.706 82.272C321.406 82.272 321.957 82.0527 322.358 81.614C322.769 81.1753 322.974 80.5267 322.974 79.668ZM329.115 83.168C328.06 83.168 327.183 82.818 326.483 82.118C325.783 81.3993 325.433 80.5267 325.433 79.5C325.433 78.464 325.783 77.596 326.483 76.896C327.183 76.1867 328.06 75.832 329.115 75.832C329.806 75.832 330.426 76 330.977 76.336C331.528 76.6627 331.929 77.106 332.181 77.666L331.425 78.1C331.238 77.68 330.935 77.3487 330.515 77.106C330.104 76.854 329.638 76.728 329.115 76.728C328.34 76.728 327.687 76.9987 327.155 77.54C326.623 78.072 326.357 78.7253 326.357 79.5C326.357 80.2653 326.623 80.9233 327.155 81.474C327.687 82.006 328.34 82.272 329.115 82.272C329.628 82.272 330.09 82.1507 330.501 81.908C330.921 81.6653 331.248 81.3293 331.481 80.9L332.251 81.348C331.962 81.908 331.537 82.3513 330.977 82.678C330.417 83.0047 329.796 83.168 329.115 83.168ZM336.771 83.168C335.717 83.168 334.839 82.818 334.139 82.118C333.439 81.3993 333.089 80.5267 333.089 79.5C333.089 78.464 333.439 77.596 334.139 76.896C334.839 76.1867 335.717 75.832 336.771 75.832C337.462 75.832 338.083 76 338.633 76.336C339.184 76.6627 339.585 77.106 339.837 77.666L339.081 78.1C338.895 77.68 338.591 77.3487 338.171 77.106C337.761 76.854 337.294 76.728 336.771 76.728C335.997 76.728 335.343 76.9987 334.811 77.54C334.279 78.072 334.013 78.7253 334.013 79.5C334.013 80.2653 334.279 80.9233 334.811 81.474C335.343 82.006 335.997 82.272 336.771 82.272C337.285 82.272 337.747 82.1507 338.157 81.908C338.577 81.6653 338.904 81.3293 339.137 80.9L339.907 81.348C339.618 81.908 339.193 82.3513 338.633 82.678C338.073 83.0047 337.453 83.168 336.771 83.168ZM344.4 75.832C345.445 75.832 346.28 76.2007 346.906 76.938C347.55 77.666 347.872 78.5293 347.872 79.528C347.872 79.5747 347.862 79.7193 347.844 79.962H341.698C341.791 80.662 342.09 81.222 342.594 81.642C343.098 82.062 343.728 82.272 344.484 82.272C345.548 82.272 346.299 81.8753 346.738 81.082L347.55 81.558C347.242 82.062 346.817 82.4587 346.276 82.748C345.744 83.028 345.142 83.168 344.47 83.168C343.368 83.168 342.472 82.8227 341.782 82.132C341.091 81.4413 340.746 80.564 340.746 79.5C340.746 78.4453 341.086 77.5727 341.768 76.882C342.449 76.182 343.326 75.832 344.4 75.832ZM344.4 76.728C343.672 76.728 343.06 76.9427 342.566 77.372C342.08 77.8013 341.791 78.366 341.698 79.066H346.92C346.817 78.3193 346.532 77.7453 346.066 77.344C345.58 76.9333 345.025 76.728 344.4 76.728ZM349.796 77.834C349.796 78.3753 350.277 78.772 351.238 79.024C351.509 79.0893 351.686 79.136 351.77 79.164C351.854 79.1827 352.017 79.234 352.26 79.318C352.512 79.3927 352.685 79.458 352.778 79.514C352.881 79.57 353.021 79.6587 353.198 79.78C353.375 79.892 353.501 80.0087 353.576 80.13C353.651 80.242 353.721 80.3913 353.786 80.578C353.851 80.7553 353.884 80.9467 353.884 81.152C353.884 81.7493 353.646 82.2347 353.17 82.608C352.713 82.9813 352.106 83.168 351.35 83.168C350.697 83.168 350.132 83.0233 349.656 82.734C349.18 82.4353 348.844 82.0433 348.648 81.558L349.432 81.096C349.563 81.46 349.796 81.7493 350.132 81.964C350.477 82.1693 350.883 82.272 351.35 82.272C351.826 82.272 352.213 82.1787 352.512 81.992C352.811 81.8053 352.96 81.5253 352.96 81.152C352.96 80.6107 352.479 80.214 351.518 79.962C351.247 79.8967 351.07 79.8547 350.986 79.836C350.902 79.808 350.734 79.7567 350.482 79.682C350.239 79.598 350.067 79.528 349.964 79.472C349.871 79.416 349.735 79.332 349.558 79.22C349.381 79.0987 349.255 78.982 349.18 78.87C349.105 78.7487 349.035 78.5993 348.97 78.422C348.905 78.2353 348.872 78.0393 348.872 77.834C348.872 77.2647 349.096 76.7887 349.544 76.406C350.011 76.0233 350.585 75.832 351.266 75.832C351.826 75.832 352.321 75.958 352.75 76.21C353.189 76.462 353.511 76.812 353.716 77.26L352.946 77.708C352.685 77.0547 352.125 76.728 351.266 76.728C350.846 76.728 350.496 76.826 350.216 77.022C349.936 77.218 349.796 77.4887 349.796 77.834ZM355.729 77.834C355.729 78.3753 356.21 78.772 357.171 79.024C357.442 79.0893 357.619 79.136 357.703 79.164C357.787 79.1827 357.951 79.234 358.193 79.318C358.445 79.3927 358.618 79.458 358.711 79.514C358.814 79.57 358.954 79.6587 359.131 79.78C359.309 79.892 359.435 80.0087 359.509 80.13C359.584 80.242 359.654 80.3913 359.719 80.578C359.785 80.7553 359.817 80.9467 359.817 81.152C359.817 81.7493 359.579 82.2347 359.103 82.608C358.646 82.9813 358.039 83.168 357.283 83.168C356.63 83.168 356.065 83.0233 355.589 82.734C355.113 82.4353 354.777 82.0433 354.581 81.558L355.365 81.096C355.496 81.46 355.729 81.7493 356.065 81.964C356.411 82.1693 356.817 82.272 357.283 82.272C357.759 82.272 358.147 82.1787 358.445 81.992C358.744 81.8053 358.893 81.5253 358.893 81.152C358.893 80.6107 358.413 80.214 357.451 79.962C357.181 79.8967 357.003 79.8547 356.919 79.836C356.835 79.808 356.667 79.7567 356.415 79.682C356.173 79.598 356 79.528 355.897 79.472C355.804 79.416 355.669 79.332 355.491 79.22C355.314 79.0987 355.188 78.982 355.113 78.87C355.039 78.7487 354.969 78.5993 354.903 78.422C354.838 78.2353 354.805 78.0393 354.805 77.834C354.805 77.2647 355.029 76.7887 355.477 76.406C355.944 76.0233 356.518 75.832 357.199 75.832C357.759 75.832 358.254 75.958 358.683 76.21C359.122 76.462 359.444 76.812 359.649 77.26L358.879 77.708C358.618 77.0547 358.058 76.728 357.199 76.728C356.779 76.728 356.429 76.826 356.149 77.022C355.869 77.218 355.729 77.4887 355.729 77.834ZM364.722 73.032V73.928C364.041 73.872 363.532 73.9887 363.196 74.278C362.87 74.5673 362.706 75.048 362.706 75.72V76H364.722V76.896H362.706V83H361.782V76.896H360.592V76H361.782V75.72C361.782 74.796 362.034 74.1007 362.538 73.634C363.052 73.1673 363.78 72.9667 364.722 73.032ZM370.635 79.668V76H371.559V83H370.635V81.908C370.112 82.748 369.328 83.168 368.283 83.168C367.443 83.168 366.775 82.9113 366.281 82.398C365.786 81.8753 365.539 81.1753 365.539 80.298V76H366.463V80.298C366.463 80.9233 366.626 81.4087 366.953 81.754C367.289 82.0993 367.76 82.272 368.367 82.272C369.067 82.272 369.617 82.0527 370.019 81.614C370.429 81.1753 370.635 80.5267 370.635 79.668ZM374.437 83H373.513V72.78H374.437V83Z" fill="#34A853"/>
<rect x="0.291667" y="37.2917" width="387.417" height="62.4167" rx="4.375" stroke="#D0D5DD" stroke-width="0.583333"/>
</g>
<defs>
<filter id="filter0_d_217_2091" x="0" y="37" width="392" height="67" filterUnits="userSpaceOnUse" color-interpolation-filters="sRGB">
<feFlood flood-opacity="0" result="BackgroundImageFix"/>
<feColorMatrix in="SourceAlpha" type="matrix" values="0 0 0 0 0 0 0 0 0 0 0 0 0 0 0 0 0 0 127 0" result="hardAlpha"/>
<feOffset dx="4" dy="4"/>
<feColorMatrix type="matrix" values="0 0 0 0 0.54902 0 0 0 0 0.737255 0 0 0 0 0.917647 0 0 0 1 0"/>
<feBlend mode="normal" in2="BackgroundImageFix" result="effect1_dropShadow_217_2091"/>
<feBlend mode="normal" in="SourceGraphic" in2="effect1_dropShadow_217_2091" result="shape"/>
</filter>
<clipPath id="clip0_217_2091">
<rect width="16" height="16" fill="white" transform="translate(109 123)"/>
</clipPath>
<clipPath id="clip1_217_2091">
<rect width="16" height="16" fill="white" transform="translate(58 99)"/>
</clipPath>
</defs>
</svg>
