<svg width="315" height="179" viewBox="0 0 315 179" fill="none" xmlns="http://www.w3.org/2000/svg">
<path fill-rule="evenodd" clip-rule="evenodd" d="M140.995 0.00502999C158.483 0.296724 171.474 12.5933 186.254 20.2456C200.433 27.587 214.638 34.185 226.211 44.1257C240.292 56.2204 262.565 67.7271 260.913 84.3748C259.222 101.417 231.933 107.866 218.582 121.02C207.884 131.56 204.521 146.995 190.179 154.067C175.775 161.169 157.318 155.963 140.995 159.278C118.196 163.907 98.2887 181.543 75.3546 177.384C52.7645 173.288 35.3708 155.948 26.4026 138.499C17.7054 121.577 23.9715 102.497 27.5514 84.3748C30.6825 68.5251 33.373 51.8059 45.962 39.4889C57.908 27.801 78.0537 25.6166 94.6583 18.7178C110.282 12.2263 123.475 -0.287203 140.995 0.00502999Z" fill="#FAF9F4"/>
<g filter="url(#filter0_d_217_2048)">
<rect x="115" y="32" width="200" height="41" rx="5" fill="white"/>
<g clip-path="url(#clip0_217_2048)">
<path d="M152.864 52.6611C152.864 52.1853 152.826 51.7069 152.743 51.2388H146.141V53.9343H149.922C149.765 54.8037 149.261 55.5728 148.522 56.0615V57.8105H150.778C152.103 56.5913 152.864 54.7909 152.864 52.6611Z" fill="#4285F4"/>
<path d="M146.138 59.5004C148.026 59.5004 149.618 58.8806 150.778 57.8106L148.523 56.0615C147.895 56.4885 147.085 56.7303 146.141 56.7303C144.315 56.7303 142.766 55.4982 142.211 53.8418H139.883V55.6448C141.071 58.0086 143.491 59.5004 146.138 59.5004Z" fill="#34A853"/>
<path d="M142.21 53.8418C141.917 52.9725 141.917 52.0311 142.21 51.1617V49.3586H139.885C138.892 51.3366 138.892 53.6669 139.885 55.6449L142.21 53.8418Z" fill="#FBBC04"/>
<path d="M146.138 48.2706C147.136 48.2552 148.101 48.6307 148.823 49.3201L150.822 47.3215C149.557 46.1332 147.877 45.4799 146.138 45.5005C143.491 45.5005 141.071 46.9923 139.883 49.3586L142.208 51.1617C142.761 49.5027 144.312 48.2706 146.138 48.2706Z" fill="#EA4335"/>
</g>
<path d="M164.214 56.182C163.299 56.182 162.515 55.972 161.862 55.552C161.218 55.1227 160.765 54.53 160.504 53.774L161.624 53.13C161.997 54.3153 162.87 54.908 164.242 54.908C164.905 54.908 165.413 54.7727 165.768 54.502C166.132 54.2313 166.314 53.8627 166.314 53.396C166.314 52.9387 166.137 52.5887 165.782 52.346C165.465 52.1313 164.872 51.884 164.004 51.604L163.066 51.296C162.861 51.212 162.59 51.0907 162.254 50.932C161.927 50.764 161.689 50.596 161.54 50.428C161.129 49.98 160.924 49.434 160.924 48.79C160.924 47.9313 161.223 47.2593 161.82 46.774C162.417 46.27 163.145 46.018 164.004 46.018C164.769 46.018 165.441 46.2093 166.02 46.592C166.599 46.9747 167.033 47.4973 167.322 48.16L166.23 48.79C165.81 47.782 165.068 47.278 164.004 47.278C163.472 47.278 163.043 47.4087 162.716 47.67C162.389 47.9313 162.226 48.286 162.226 48.734C162.226 49.1633 162.38 49.49 162.688 49.714C163.005 49.9473 163.537 50.1807 164.284 50.414L164.858 50.596C165.175 50.7173 165.348 50.7827 165.376 50.792C165.675 50.904 166.001 51.058 166.356 51.254C166.608 51.394 166.86 51.6087 167.112 51.898C167.439 52.2247 167.602 52.7147 167.602 53.368C167.602 54.2267 167.289 54.9127 166.664 55.426C166.029 55.93 165.213 56.182 164.214 56.182ZM169.634 47.726C169.4 47.726 169.204 47.6467 169.046 47.488C168.887 47.3293 168.808 47.138 168.808 46.914C168.808 46.69 168.887 46.4987 169.046 46.34C169.204 46.172 169.4 46.088 169.634 46.088C169.858 46.088 170.049 46.172 170.208 46.34C170.366 46.4987 170.446 46.69 170.446 46.914C170.446 47.138 170.366 47.3293 170.208 47.488C170.049 47.6467 169.858 47.726 169.634 47.726ZM170.236 56H169.018V49H170.236V56ZM177.904 50.204V49H179.108V55.706C179.108 56.742 178.758 57.5447 178.058 58.114C177.349 58.6927 176.509 58.982 175.538 58.982C174.754 58.982 174.077 58.8327 173.508 58.534C172.939 58.2447 172.509 57.8247 172.22 57.274L173.284 56.672C173.667 57.456 174.427 57.848 175.566 57.848C176.294 57.848 176.863 57.6567 177.274 57.274C177.694 56.8913 177.904 56.3687 177.904 55.706V54.712C177.288 55.6453 176.411 56.112 175.272 56.112C174.264 56.112 173.419 55.7573 172.738 55.048C172.047 54.3293 171.702 53.466 171.702 52.458C171.702 51.45 172.047 50.5913 172.738 49.882C173.419 49.1727 174.264 48.818 175.272 48.818C176.42 48.818 177.297 49.28 177.904 50.204ZM177.904 52.458C177.904 51.758 177.666 51.17 177.19 50.694C176.714 50.218 176.121 49.98 175.412 49.98C174.703 49.98 174.11 50.218 173.634 50.694C173.158 51.17 172.92 51.758 172.92 52.458C172.92 53.1673 173.158 53.76 173.634 54.236C174.11 54.712 174.703 54.95 175.412 54.95C176.121 54.95 176.714 54.712 177.19 54.236C177.666 53.76 177.904 53.1673 177.904 52.458ZM184.439 48.818C185.261 48.818 185.919 49.0793 186.413 49.602C186.908 50.1153 187.155 50.8153 187.155 51.702V56H185.937V51.772C185.937 51.212 185.783 50.7733 185.475 50.456C185.167 50.1387 184.743 49.98 184.201 49.98C183.576 49.98 183.081 50.176 182.717 50.568C182.353 50.9507 182.171 51.5247 182.171 52.29V56H180.953V49H182.171V50.008C182.657 49.2147 183.413 48.818 184.439 48.818ZM197.186 52.71V49H198.404V56H197.186V54.992C196.7 55.7853 195.944 56.182 194.918 56.182C194.096 56.182 193.438 55.9253 192.944 55.412C192.449 54.8893 192.202 54.1847 192.202 53.298V49H193.42V53.228C193.42 53.788 193.574 54.2267 193.882 54.544C194.19 54.8613 194.614 55.02 195.156 55.02C195.781 55.02 196.276 54.8287 196.64 54.446C197.004 54.054 197.186 53.4753 197.186 52.71ZM204.122 48.818C205.102 48.818 205.937 49.1773 206.628 49.896C207.319 50.6147 207.664 51.4827 207.664 52.5C207.664 53.5267 207.319 54.3993 206.628 55.118C205.947 55.8273 205.111 56.182 204.122 56.182C202.965 56.182 202.083 55.72 201.476 54.796V58.8H200.258V49H201.476V50.204C202.083 49.28 202.965 48.818 204.122 48.818ZM203.968 55.006C204.668 55.006 205.256 54.768 205.732 54.292C206.208 53.7973 206.446 53.2 206.446 52.5C206.446 51.7907 206.208 51.198 205.732 50.722C205.256 50.2367 204.668 49.994 203.968 49.994C203.259 49.994 202.666 50.2367 202.19 50.722C201.714 51.198 201.476 51.7907 201.476 52.5C201.476 53.2 201.714 53.7973 202.19 54.292C202.666 54.768 203.259 55.006 203.968 55.006ZM219.323 54.334L220.863 49H222.137L219.967 56H218.721L217.083 50.82L215.445 56H214.199L212.029 49H213.303L214.843 54.32L216.495 49H217.671L219.323 54.334ZM224.007 47.726C223.773 47.726 223.577 47.6467 223.419 47.488C223.26 47.3293 223.181 47.138 223.181 46.914C223.181 46.69 223.26 46.4987 223.419 46.34C223.577 46.172 223.773 46.088 224.007 46.088C224.231 46.088 224.422 46.172 224.581 46.34C224.739 46.4987 224.819 46.69 224.819 46.914C224.819 47.138 224.739 47.3293 224.581 47.488C224.422 47.6467 224.231 47.726 224.007 47.726ZM224.609 56H223.391V49H224.609V56ZM230.275 49V50.176H228.413V53.97C228.413 54.3153 228.478 54.5627 228.609 54.712C228.749 54.852 228.959 54.9267 229.239 54.936C229.519 54.936 229.864 54.9267 230.275 54.908V56C229.202 56.14 228.418 56.0513 227.923 55.734C227.438 55.4167 227.195 54.8287 227.195 53.97V50.176H225.809V49H227.195V47.404L228.413 47.04V49H230.275ZM235.203 48.818C236.024 48.818 236.682 49.0793 237.177 49.602C237.672 50.1153 237.919 50.8153 237.919 51.702V56H236.701V51.772C236.701 51.212 236.547 50.7733 236.239 50.456C235.931 50.1387 235.506 49.98 234.965 49.98C234.34 49.98 233.845 50.176 233.481 50.568C233.117 50.9507 232.935 51.5247 232.935 52.29V56H231.717V46.2H232.935V50.008C233.42 49.2147 234.176 48.818 235.203 48.818ZM247.795 51.142H252.695V51.73C252.695 53.0087 252.257 54.0727 251.379 54.922C250.502 55.762 249.34 56.182 247.893 56.182C246.4 56.182 245.163 55.692 244.183 54.712C243.213 53.7133 242.727 52.5093 242.727 51.1C242.727 49.6907 243.213 48.4913 244.183 47.502C245.163 46.5127 246.391 46.018 247.865 46.018C248.761 46.018 249.592 46.2373 250.357 46.676C251.132 47.1147 251.715 47.684 252.107 48.384L250.987 49.042C250.707 48.51 250.283 48.0853 249.713 47.768C249.144 47.4413 248.523 47.278 247.851 47.278C246.722 47.278 245.803 47.6467 245.093 48.384C244.375 49.1213 244.015 50.0267 244.015 51.1C244.015 52.1733 244.375 53.0787 245.093 53.816C245.821 54.544 246.759 54.908 247.907 54.908C248.869 54.908 249.653 54.6747 250.259 54.208C250.875 53.732 251.253 53.102 251.393 52.318H247.795V51.142ZM260.061 55.118C259.351 55.8273 258.479 56.182 257.443 56.182C256.407 56.182 255.534 55.8273 254.825 55.118C254.115 54.4087 253.761 53.536 253.761 52.5C253.761 51.464 254.115 50.5913 254.825 49.882C255.534 49.1727 256.407 48.818 257.443 48.818C258.479 48.818 259.351 49.1727 260.061 49.882C260.779 50.6007 261.139 51.4733 261.139 52.5C261.139 53.5267 260.779 54.3993 260.061 55.118ZM257.443 54.992C258.143 54.992 258.731 54.754 259.207 54.278C259.683 53.802 259.921 53.2093 259.921 52.5C259.921 51.7907 259.683 51.198 259.207 50.722C258.731 50.246 258.143 50.008 257.443 50.008C256.752 50.008 256.169 50.246 255.693 50.722C255.217 51.198 254.979 51.7907 254.979 52.5C254.979 53.2093 255.217 53.802 255.693 54.278C256.169 54.754 256.752 54.992 257.443 54.992ZM268.482 55.118C267.773 55.8273 266.9 56.182 265.864 56.182C264.828 56.182 263.956 55.8273 263.246 55.118C262.537 54.4087 262.182 53.536 262.182 52.5C262.182 51.464 262.537 50.5913 263.246 49.882C263.956 49.1727 264.828 48.818 265.864 48.818C266.9 48.818 267.773 49.1727 268.482 49.882C269.201 50.6007 269.56 51.4733 269.56 52.5C269.56 53.5267 269.201 54.3993 268.482 55.118ZM265.864 54.992C266.564 54.992 267.152 54.754 267.628 54.278C268.104 53.802 268.342 53.2093 268.342 52.5C268.342 51.7907 268.104 51.198 267.628 50.722C267.152 50.246 266.564 50.008 265.864 50.008C265.174 50.008 264.59 50.246 264.114 50.722C263.638 51.198 263.4 51.7907 263.4 52.5C263.4 53.2093 263.638 53.802 264.114 54.278C264.59 54.754 265.174 54.992 265.864 54.992ZM276.806 50.204V49H278.01V55.706C278.01 56.742 277.66 57.5447 276.96 58.114C276.251 58.6927 275.411 58.982 274.44 58.982C273.656 58.982 272.98 58.8327 272.41 58.534C271.841 58.2447 271.412 57.8247 271.122 57.274L272.186 56.672C272.569 57.456 273.33 57.848 274.468 57.848C275.196 57.848 275.766 57.6567 276.176 57.274C276.596 56.8913 276.806 56.3687 276.806 55.706V54.712C276.19 55.6453 275.313 56.112 274.174 56.112C273.166 56.112 272.322 55.7573 271.64 55.048C270.95 54.3293 270.604 53.466 270.604 52.458C270.604 51.45 270.95 50.5913 271.64 49.882C272.322 49.1727 273.166 48.818 274.174 48.818C275.322 48.818 276.2 49.28 276.806 50.204ZM276.806 52.458C276.806 51.758 276.568 51.17 276.092 50.694C275.616 50.218 275.024 49.98 274.314 49.98C273.605 49.98 273.012 50.218 272.536 50.694C272.06 51.17 271.822 51.758 271.822 52.458C271.822 53.1673 272.06 53.76 272.536 54.236C273.012 54.712 273.605 54.95 274.314 54.95C275.024 54.95 275.616 54.712 276.092 54.236C276.568 53.76 276.806 53.1673 276.806 52.458ZM281.074 56H279.856V45.78H281.074V56ZM289.652 53.06H283.786C283.907 53.676 284.192 54.1613 284.64 54.516C285.088 54.8613 285.648 55.034 286.32 55.034C287.244 55.034 287.916 54.6933 288.336 54.012L289.372 54.6C288.681 55.6547 287.654 56.182 286.292 56.182C285.19 56.182 284.285 55.8367 283.576 55.146C282.885 54.4367 282.54 53.5547 282.54 52.5C282.54 51.436 282.88 50.5587 283.562 49.868C284.243 49.168 285.125 48.818 286.208 48.818C287.234 48.818 288.07 49.182 288.714 49.91C289.367 50.6193 289.694 51.4873 289.694 52.514C289.694 52.6913 289.68 52.8733 289.652 53.06ZM286.208 49.966C285.564 49.966 285.022 50.148 284.584 50.512C284.154 50.876 283.888 51.3707 283.786 51.996H288.462C288.359 51.352 288.102 50.8527 287.692 50.498C287.281 50.1433 286.786 49.966 286.208 49.966Z" fill="#344054"/>
<rect x="115.292" y="32.2917" width="199.417" height="40.4167" rx="4.70833" stroke="#D0D5DD" stroke-width="0.583333"/>
</g>
<g filter="url(#filter1_d_217_2048)">
<rect y="89" width="216" height="41" rx="5" fill="white"/>
<g clip-path="url(#clip1_217_2048)">
<path d="M38 109.5C38 105.634 34.866 102.5 31 102.5C27.134 102.5 24 105.634 24 109.5C24 112.994 26.5598 115.89 29.9062 116.415V111.523H28.1289V109.5H29.9062V107.958C29.9062 106.203 30.9513 105.234 32.5503 105.234C33.3159 105.234 34.1172 105.371 34.1172 105.371V107.094H33.2345C32.365 107.094 32.0938 107.633 32.0938 108.188V109.5H34.0352L33.7248 111.523H32.0938V116.415C35.4402 115.89 38 112.994 38 109.5Z" fill="#1877F2"/>
<path d="M33.7248 111.523L34.0352 109.5H32.0937V108.188C32.0937 107.634 32.365 107.094 33.2345 107.094H34.1172V105.371C34.1172 105.371 33.3162 105.234 32.5503 105.234C30.9513 105.234 29.9062 106.203 29.9062 107.958V109.5H28.1289V111.523H29.9062V116.415C30.631 116.528 31.369 116.528 32.0937 116.415V111.523H33.7248Z" fill="white"/>
</g>
<path d="M49.214 113.182C48.2993 113.182 47.5153 112.972 46.862 112.552C46.218 112.123 45.7653 111.53 45.504 110.774L46.624 110.13C46.9973 111.315 47.87 111.908 49.242 111.908C49.9047 111.908 50.4133 111.773 50.768 111.502C51.132 111.231 51.314 110.863 51.314 110.396C51.314 109.939 51.1367 109.589 50.782 109.346C50.4647 109.131 49.872 108.884 49.004 108.604L48.066 108.296C47.8607 108.212 47.59 108.091 47.254 107.932C46.9273 107.764 46.6893 107.596 46.54 107.428C46.1293 106.98 45.924 106.434 45.924 105.79C45.924 104.931 46.2227 104.259 46.82 103.774C47.4173 103.27 48.1453 103.018 49.004 103.018C49.7693 103.018 50.4413 103.209 51.02 103.592C51.5987 103.975 52.0327 104.497 52.322 105.16L51.23 105.79C50.81 104.782 50.068 104.278 49.004 104.278C48.472 104.278 48.0427 104.409 47.716 104.67C47.3893 104.931 47.226 105.286 47.226 105.734C47.226 106.163 47.38 106.49 47.688 106.714C48.0053 106.947 48.5373 107.181 49.284 107.414L49.858 107.596C50.1753 107.717 50.348 107.783 50.376 107.792C50.6747 107.904 51.0013 108.058 51.356 108.254C51.608 108.394 51.86 108.609 52.112 108.898C52.4387 109.225 52.602 109.715 52.602 110.368C52.602 111.227 52.2893 111.913 51.664 112.426C51.0293 112.93 50.2127 113.182 49.214 113.182ZM54.6338 104.726C54.4004 104.726 54.2044 104.647 54.0458 104.488C53.8871 104.329 53.8078 104.138 53.8078 103.914C53.8078 103.69 53.8871 103.499 54.0458 103.34C54.2044 103.172 54.4004 103.088 54.6338 103.088C54.8578 103.088 55.0491 103.172 55.2078 103.34C55.3664 103.499 55.4458 103.69 55.4458 103.914C55.4458 104.138 55.3664 104.329 55.2078 104.488C55.0491 104.647 54.8578 104.726 54.6338 104.726ZM55.2358 113H54.0177V106H55.2358V113ZM62.9039 107.204V106H64.1079V112.706C64.1079 113.742 63.7579 114.545 63.0579 115.114C62.3486 115.693 61.5086 115.982 60.5379 115.982C59.7539 115.982 59.0773 115.833 58.5079 115.534C57.9386 115.245 57.5093 114.825 57.2199 114.274L58.2839 113.672C58.6666 114.456 59.4273 114.848 60.5659 114.848C61.2939 114.848 61.8633 114.657 62.2739 114.274C62.6939 113.891 62.9039 113.369 62.9039 112.706V111.712C62.2879 112.645 61.4106 113.112 60.2719 113.112C59.2639 113.112 58.4193 112.757 57.7379 112.048C57.0473 111.329 56.7019 110.466 56.7019 109.458C56.7019 108.45 57.0473 107.591 57.7379 106.882C58.4193 106.173 59.2639 105.818 60.2719 105.818C61.4199 105.818 62.2973 106.28 62.9039 107.204ZM62.9039 109.458C62.9039 108.758 62.6659 108.17 62.1899 107.694C61.7139 107.218 61.1213 106.98 60.4119 106.98C59.7026 106.98 59.1099 107.218 58.6339 107.694C58.1579 108.17 57.9199 108.758 57.9199 109.458C57.9199 110.167 58.1579 110.76 58.6339 111.236C59.1099 111.712 59.7026 111.95 60.4119 111.95C61.1213 111.95 61.7139 111.712 62.1899 111.236C62.6659 110.76 62.9039 110.167 62.9039 109.458ZM69.4393 105.818C70.2606 105.818 70.9186 106.079 71.4133 106.602C71.908 107.115 72.1553 107.815 72.1553 108.702V113H70.9373V108.772C70.9373 108.212 70.7833 107.773 70.4753 107.456C70.1673 107.139 69.7426 106.98 69.2013 106.98C68.576 106.98 68.0813 107.176 67.7173 107.568C67.3533 107.951 67.1713 108.525 67.1713 109.29V113H65.9533V106H67.1713V107.008C67.6566 106.215 68.4126 105.818 69.4393 105.818ZM82.1856 109.71V106H83.4036V113H82.1856V111.992C81.7003 112.785 80.9443 113.182 79.9176 113.182C79.0963 113.182 78.4383 112.925 77.9436 112.412C77.449 111.889 77.2016 111.185 77.2016 110.298V106H78.4196V110.228C78.4196 110.788 78.5736 111.227 78.8816 111.544C79.1896 111.861 79.6143 112.02 80.1556 112.02C80.781 112.02 81.2756 111.829 81.6396 111.446C82.0036 111.054 82.1856 110.475 82.1856 109.71ZM89.122 105.818C90.102 105.818 90.9373 106.177 91.628 106.896C92.3187 107.615 92.664 108.483 92.664 109.5C92.664 110.527 92.3187 111.399 91.628 112.118C90.9467 112.827 90.1113 113.182 89.122 113.182C87.9647 113.182 87.0827 112.72 86.476 111.796V115.8H85.258V106H86.476V107.204C87.0827 106.28 87.9647 105.818 89.122 105.818ZM88.968 112.006C89.668 112.006 90.256 111.768 90.732 111.292C91.208 110.797 91.446 110.2 91.446 109.5C91.446 108.791 91.208 108.198 90.732 107.722C90.256 107.237 89.668 106.994 88.968 106.994C88.2587 106.994 87.666 107.237 87.19 107.722C86.714 108.198 86.476 108.791 86.476 109.5C86.476 110.2 86.714 110.797 87.19 111.292C87.666 111.768 88.2587 112.006 88.968 112.006ZM104.323 111.334L105.863 106H107.137L104.967 113H103.721L102.083 107.82L100.445 113H99.1994L97.0294 106H98.3034L99.8434 111.32L101.495 106H102.671L104.323 111.334ZM109.007 104.726C108.773 104.726 108.577 104.647 108.419 104.488C108.26 104.329 108.181 104.138 108.181 103.914C108.181 103.69 108.26 103.499 108.419 103.34C108.577 103.172 108.773 103.088 109.007 103.088C109.231 103.088 109.422 103.172 109.581 103.34C109.739 103.499 109.819 103.69 109.819 103.914C109.819 104.138 109.739 104.329 109.581 104.488C109.422 104.647 109.231 104.726 109.007 104.726ZM109.609 113H108.391V106H109.609V113ZM115.275 106V107.176H113.413V110.97C113.413 111.315 113.478 111.563 113.609 111.712C113.749 111.852 113.959 111.927 114.239 111.936C114.519 111.936 114.864 111.927 115.275 111.908V113C114.202 113.14 113.418 113.051 112.923 112.734C112.438 112.417 112.195 111.829 112.195 110.97V107.176H110.809V106H112.195V104.404L113.413 104.04V106H115.275ZM120.203 105.818C121.024 105.818 121.682 106.079 122.177 106.602C122.672 107.115 122.919 107.815 122.919 108.702V113H121.701V108.772C121.701 108.212 121.547 107.773 121.239 107.456C120.931 107.139 120.506 106.98 119.965 106.98C119.34 106.98 118.845 107.176 118.481 107.568C118.117 107.951 117.935 108.525 117.935 109.29V113H116.717V103.2H117.935V107.008C118.42 106.215 119.176 105.818 120.203 105.818ZM133.887 103.2V104.432H129.547V107.61H133.705V108.842H129.547V113H128.245V103.2H133.887ZM141.134 107.204V106H142.352V113H141.134V111.796C140.537 112.72 139.655 113.182 138.488 113.182C137.499 113.182 136.663 112.827 135.982 112.118C135.291 111.399 134.946 110.527 134.946 109.5C134.946 108.483 135.291 107.615 135.982 106.896C136.673 106.177 137.508 105.818 138.488 105.818C139.655 105.818 140.537 106.28 141.134 107.204ZM138.642 112.006C139.351 112.006 139.944 111.768 140.42 111.292C140.896 110.797 141.134 110.2 141.134 109.5C141.134 108.791 140.896 108.198 140.42 107.722C139.944 107.237 139.351 106.994 138.642 106.994C137.942 106.994 137.354 107.237 136.878 107.722C136.402 108.198 136.164 108.791 136.164 109.5C136.164 110.2 136.402 110.797 136.878 111.292C137.354 111.768 137.942 112.006 138.642 112.006ZM147.487 113.182C146.433 113.182 145.555 112.832 144.855 112.132C144.155 111.423 143.805 110.545 143.805 109.5C143.805 108.455 144.155 107.582 144.855 106.882C145.555 106.173 146.433 105.818 147.487 105.818C148.178 105.818 148.799 105.986 149.349 106.322C149.9 106.649 150.311 107.092 150.581 107.652L149.559 108.24C149.382 107.867 149.107 107.568 148.733 107.344C148.369 107.12 147.954 107.008 147.487 107.008C146.787 107.008 146.199 107.246 145.723 107.722C145.257 108.207 145.023 108.8 145.023 109.5C145.023 110.191 145.257 110.779 145.723 111.264C146.199 111.74 146.787 111.978 147.487 111.978C147.954 111.978 148.374 111.871 148.747 111.656C149.121 111.432 149.405 111.133 149.601 110.76L150.637 111.362C150.329 111.922 149.895 112.365 149.335 112.692C148.775 113.019 148.159 113.182 147.487 113.182ZM158.464 110.06H152.598C152.72 110.676 153.004 111.161 153.452 111.516C153.9 111.861 154.46 112.034 155.132 112.034C156.056 112.034 156.728 111.693 157.148 111.012L158.184 111.6C157.494 112.655 156.467 113.182 155.104 113.182C154.003 113.182 153.098 112.837 152.388 112.146C151.698 111.437 151.352 110.555 151.352 109.5C151.352 108.436 151.693 107.559 152.374 106.868C153.056 106.168 153.938 105.818 155.02 105.818C156.047 105.818 156.882 106.182 157.526 106.91C158.18 107.619 158.506 108.487 158.506 109.514C158.506 109.691 158.492 109.873 158.464 110.06ZM155.02 106.966C154.376 106.966 153.835 107.148 153.396 107.512C152.967 107.876 152.701 108.371 152.598 108.996H157.274C157.172 108.352 156.915 107.853 156.504 107.498C156.094 107.143 155.599 106.966 155.02 106.966ZM163.77 105.818C164.75 105.818 165.586 106.177 166.276 106.896C166.967 107.615 167.312 108.483 167.312 109.5C167.312 110.527 166.967 111.399 166.276 112.118C165.595 112.827 164.76 113.182 163.77 113.182C162.613 113.182 161.731 112.72 161.124 111.796V113H159.906V103.2H161.124V107.204C161.731 106.28 162.613 105.818 163.77 105.818ZM163.616 112.006C164.316 112.006 164.904 111.768 165.38 111.292C165.856 110.797 166.094 110.2 166.094 109.5C166.094 108.791 165.856 108.198 165.38 107.722C164.904 107.237 164.316 106.994 163.616 106.994C162.907 106.994 162.314 107.237 161.838 107.722C161.362 108.198 161.124 108.791 161.124 109.5C161.124 110.2 161.362 110.797 161.838 111.292C162.314 111.768 162.907 112.006 163.616 112.006ZM174.674 112.118C173.964 112.827 173.092 113.182 172.056 113.182C171.02 113.182 170.147 112.827 169.438 112.118C168.728 111.409 168.374 110.536 168.374 109.5C168.374 108.464 168.728 107.591 169.438 106.882C170.147 106.173 171.02 105.818 172.056 105.818C173.092 105.818 173.964 106.173 174.674 106.882C175.392 107.601 175.752 108.473 175.752 109.5C175.752 110.527 175.392 111.399 174.674 112.118ZM172.056 111.992C172.756 111.992 173.344 111.754 173.82 111.278C174.296 110.802 174.534 110.209 174.534 109.5C174.534 108.791 174.296 108.198 173.82 107.722C173.344 107.246 172.756 107.008 172.056 107.008C171.365 107.008 170.782 107.246 170.306 107.722C169.83 108.198 169.592 108.791 169.592 109.5C169.592 110.209 169.83 110.802 170.306 111.278C170.782 111.754 171.365 111.992 172.056 111.992ZM183.096 112.118C182.386 112.827 181.514 113.182 180.478 113.182C179.442 113.182 178.569 112.827 177.86 112.118C177.15 111.409 176.796 110.536 176.796 109.5C176.796 108.464 177.15 107.591 177.86 106.882C178.569 106.173 179.442 105.818 180.478 105.818C181.514 105.818 182.386 106.173 183.096 106.882C183.814 107.601 184.174 108.473 184.174 109.5C184.174 110.527 183.814 111.399 183.096 112.118ZM180.478 111.992C181.178 111.992 181.766 111.754 182.242 111.278C182.718 110.802 182.956 110.209 182.956 109.5C182.956 108.791 182.718 108.198 182.242 107.722C181.766 107.246 181.178 107.008 180.478 107.008C179.787 107.008 179.204 107.246 178.728 107.722C178.252 108.198 178.014 108.791 178.014 109.5C178.014 110.209 178.252 110.802 178.728 111.278C179.204 111.754 179.787 111.992 180.478 111.992ZM188.074 109.388L191.532 113H190.02L186.828 109.682V113H185.61V103.2H186.828V109.094L189.852 106H191.42L188.074 109.388Z" fill="#344054"/>
<rect x="0.291667" y="89.2917" width="215.417" height="40.4167" rx="4.70833" stroke="#D0D5DD" stroke-width="0.583333"/>
</g>
<defs>
<filter id="filter0_d_217_2048" x="111" y="32" width="204" height="45" filterUnits="userSpaceOnUse" color-interpolation-filters="sRGB">
<feFlood flood-opacity="0" result="BackgroundImageFix"/>
<feColorMatrix in="SourceAlpha" type="matrix" values="0 0 0 0 0 0 0 0 0 0 0 0 0 0 0 0 0 0 127 0" result="hardAlpha"/>
<feOffset dx="-4" dy="4"/>
<feColorMatrix type="matrix" values="0 0 0 0 0.975034 0 0 0 0 0.237256 0 0 0 0 0.237256 0 0 0 0.47 0"/>
<feBlend mode="normal" in2="BackgroundImageFix" result="effect1_dropShadow_217_2048"/>
<feBlend mode="normal" in="SourceGraphic" in2="effect1_dropShadow_217_2048" result="shape"/>
</filter>
<filter id="filter1_d_217_2048" x="0" y="89" width="220" height="45" filterUnits="userSpaceOnUse" color-interpolation-filters="sRGB">
<feFlood flood-opacity="0" result="BackgroundImageFix"/>
<feColorMatrix in="SourceAlpha" type="matrix" values="0 0 0 0 0 0 0 0 0 0 0 0 0 0 0 0 0 0 127 0" result="hardAlpha"/>
<feOffset dx="4" dy="4"/>
<feColorMatrix type="matrix" values="0 0 0 0 0.0156249 0 0 0 0 0.432708 0 0 0 0 0.817709 0 0 0 0.46 0"/>
<feBlend mode="normal" in2="BackgroundImageFix" result="effect1_dropShadow_217_2048"/>
<feBlend mode="normal" in="SourceGraphic" in2="effect1_dropShadow_217_2048" result="shape"/>
</filter>
<clipPath id="clip0_217_2048">
<rect width="14" height="14" fill="white" transform="translate(139 45.5)"/>
</clipPath>
<clipPath id="clip1_217_2048">
<rect width="14" height="14" fill="white" transform="translate(24 102.5)"/>
</clipPath>
</defs>
</svg>
