<svg width="403" height="241" viewBox="0 0 403 241" fill="none" xmlns="http://www.w3.org/2000/svg">
<path fill-rule="evenodd" clip-rule="evenodd" d="M213.995 62.005C231.483 62.2967 244.474 74.5933 259.254 82.2456C273.433 89.587 287.638 96.185 299.211 106.126C313.292 118.22 335.565 129.727 333.913 146.375C332.222 163.417 304.933 169.866 291.582 183.02C280.884 193.56 277.521 208.995 263.179 216.067C248.775 223.169 230.318 217.963 213.995 221.278C191.196 225.907 171.289 243.543 148.355 239.384C125.765 235.288 108.371 217.948 99.4026 200.499C90.7054 183.577 96.9715 164.497 100.551 146.375C103.683 130.525 106.373 113.806 118.962 101.489C130.908 89.801 151.054 87.6166 167.658 80.7178C183.282 74.2263 196.475 61.7128 213.995 62.005Z" fill="#FAF9F4"/>
<g clip-path="url(#clip0_497_1312)">
<rect x="122" y="65" width="177" height="147" rx="5.72926" fill="white"/>
</g>
<rect x="122.208" y="65.2077" width="176.585" height="146.585" rx="5.52157" stroke="#D0D5DD" stroke-width="0.415371"/>
<g filter="url(#filter0_d_497_1312)">
<rect x="4" y="108" width="259" height="93" rx="4.66667" fill="white"/>
<path d="M17.05 128.2H20.872C22.1973 128.2 23.3033 128.676 24.19 129.628C25.0767 130.571 25.52 131.728 25.52 133.1C25.52 134.463 25.0767 135.625 24.19 136.586C23.3033 137.529 22.1973 138 20.872 138H17.05V128.2ZM18.352 136.768H20.872C21.8707 136.768 22.6873 136.418 23.322 135.718C23.9567 135.009 24.274 134.136 24.274 133.1C24.274 132.064 23.9567 131.191 23.322 130.482C22.6873 129.782 21.8707 129.432 20.872 129.432H18.352V136.768ZM33.6928 135.06H27.8268C27.9482 135.676 28.2328 136.161 28.6808 136.516C29.1288 136.861 29.6888 137.034 30.3608 137.034C31.2848 137.034 31.9568 136.693 32.3768 136.012L33.4128 136.6C32.7222 137.655 31.6955 138.182 30.3328 138.182C29.2315 138.182 28.3262 137.837 27.6168 137.146C26.9262 136.437 26.5808 135.555 26.5808 134.5C26.5808 133.436 26.9215 132.559 27.6028 131.868C28.2842 131.168 29.1662 130.818 30.2488 130.818C31.2755 130.818 32.1108 131.182 32.7548 131.91C33.4082 132.619 33.7348 133.487 33.7348 134.514C33.7348 134.691 33.7208 134.873 33.6928 135.06ZM30.2488 131.966C29.6048 131.966 29.0635 132.148 28.6248 132.512C28.1955 132.876 27.9295 133.371 27.8268 133.996H32.5028C32.4002 133.352 32.1435 132.853 31.7328 132.498C31.3222 132.143 30.8275 131.966 30.2488 131.966ZM35.9115 132.89C35.9115 133.338 36.3735 133.688 37.2975 133.94C37.6428 134.015 37.9322 134.094 38.1655 134.178C38.4082 134.253 38.6695 134.369 38.9495 134.528C39.2388 134.687 39.4582 134.897 39.6075 135.158C39.7568 135.419 39.8315 135.727 39.8315 136.082C39.8315 136.717 39.5842 137.225 39.0895 137.608C38.5948 137.991 37.9695 138.182 37.2135 138.182C36.5415 138.182 35.9582 138.037 35.4635 137.748C34.9782 137.449 34.6328 137.048 34.4275 136.544L35.4775 135.942C35.5895 136.278 35.7995 136.544 36.1075 136.74C36.4155 136.936 36.7842 137.034 37.2135 137.034C37.6335 137.034 37.9695 136.955 38.2215 136.796C38.4735 136.637 38.5995 136.399 38.5995 136.082C38.5995 135.606 38.1375 135.261 37.2135 135.046C36.9055 134.962 36.6722 134.897 36.5135 134.85C36.3548 134.803 36.1355 134.719 35.8555 134.598C35.5848 134.477 35.3795 134.351 35.2395 134.22C35.0995 134.08 34.9688 133.898 34.8475 133.674C34.7355 133.441 34.6795 133.184 34.6795 132.904C34.6795 132.297 34.9128 131.798 35.3795 131.406C35.8555 131.014 36.4482 130.818 37.1575 130.818C37.7268 130.818 38.2308 130.949 38.6695 131.21C39.1175 131.462 39.4535 131.817 39.6775 132.274L38.6555 132.848C38.4035 132.251 37.9042 131.952 37.1575 131.952C36.8028 131.952 36.5042 132.036 36.2615 132.204C36.0282 132.372 35.9115 132.601 35.9115 132.89ZM44.3722 138.182C43.3175 138.182 42.4402 137.832 41.7402 137.132C41.0402 136.423 40.6902 135.545 40.6902 134.5C40.6902 133.455 41.0402 132.582 41.7402 131.882C42.4402 131.173 43.3175 130.818 44.3722 130.818C45.0629 130.818 45.6835 130.986 46.2342 131.322C46.7849 131.649 47.1955 132.092 47.4662 132.652L46.4442 133.24C46.2669 132.867 45.9915 132.568 45.6182 132.344C45.2542 132.12 44.8389 132.008 44.3722 132.008C43.6722 132.008 43.0842 132.246 42.6082 132.722C42.1415 133.207 41.9082 133.8 41.9082 134.5C41.9082 135.191 42.1415 135.779 42.6082 136.264C43.0842 136.74 43.6722 136.978 44.3722 136.978C44.8389 136.978 45.2589 136.871 45.6322 136.656C46.0055 136.432 46.2902 136.133 46.4862 135.76L47.5222 136.362C47.2142 136.922 46.7802 137.365 46.2202 137.692C45.6602 138.019 45.0442 138.182 44.3722 138.182ZM49.9565 131V132.176C50.3578 131.308 51.0858 130.874 52.1405 130.874V132.148C51.5431 132.12 51.0298 132.279 50.6005 132.624C50.1711 132.969 49.9565 133.525 49.9565 134.29V138H48.7385V131H49.9565ZM53.9482 129.726C53.7149 129.726 53.5189 129.647 53.3602 129.488C53.2015 129.329 53.1222 129.138 53.1222 128.914C53.1222 128.69 53.2015 128.499 53.3602 128.34C53.5189 128.172 53.7149 128.088 53.9482 128.088C54.1722 128.088 54.3635 128.172 54.5222 128.34C54.6809 128.499 54.7602 128.69 54.7602 128.914C54.7602 129.138 54.6809 129.329 54.5222 129.488C54.3635 129.647 54.1722 129.726 53.9482 129.726ZM54.5502 138H53.3322V131H54.5502V138ZM60.2724 130.818C61.2524 130.818 62.0877 131.177 62.7784 131.896C63.469 132.615 63.8144 133.483 63.8144 134.5C63.8144 135.527 63.469 136.399 62.7784 137.118C62.097 137.827 61.2617 138.182 60.2724 138.182C59.115 138.182 58.233 137.72 57.6264 136.796V140.8H56.4084V131H57.6264V132.204C58.233 131.28 59.115 130.818 60.2724 130.818ZM60.1184 137.006C60.8184 137.006 61.4064 136.768 61.8824 136.292C62.3584 135.797 62.5964 135.2 62.5964 134.5C62.5964 133.791 62.3584 133.198 61.8824 132.722C61.4064 132.237 60.8184 131.994 60.1184 131.994C59.409 131.994 58.8164 132.237 58.3404 132.722C57.8644 133.198 57.6264 133.791 57.6264 134.5C57.6264 135.2 57.8644 135.797 58.3404 136.292C58.8164 136.768 59.409 137.006 60.1184 137.006ZM68.9254 131V132.176H67.0634V135.97C67.0634 136.315 67.1287 136.563 67.2594 136.712C67.3994 136.852 67.6094 136.927 67.8894 136.936C68.1694 136.936 68.5147 136.927 68.9254 136.908V138C67.852 138.14 67.068 138.051 66.5734 137.734C66.088 137.417 65.8454 136.829 65.8454 135.97V132.176H64.4594V131H65.8454V129.404L67.0634 129.04V131H68.9254ZM70.9834 129.726C70.75 129.726 70.554 129.647 70.3954 129.488C70.2367 129.329 70.1574 129.138 70.1574 128.914C70.1574 128.69 70.2367 128.499 70.3954 128.34C70.554 128.172 70.75 128.088 70.9834 128.088C71.2074 128.088 71.3987 128.172 71.5574 128.34C71.716 128.499 71.7954 128.69 71.7954 128.914C71.7954 129.138 71.716 129.329 71.5574 129.488C71.3987 129.647 71.2074 129.726 70.9834 129.726ZM71.5854 138H70.3674V131H71.5854V138ZM79.3515 137.118C78.6422 137.827 77.7695 138.182 76.7335 138.182C75.6975 138.182 74.8249 137.827 74.1155 137.118C73.4062 136.409 73.0515 135.536 73.0515 134.5C73.0515 133.464 73.4062 132.591 74.1155 131.882C74.8249 131.173 75.6975 130.818 76.7335 130.818C77.7695 130.818 78.6422 131.173 79.3515 131.882C80.0702 132.601 80.4295 133.473 80.4295 134.5C80.4295 135.527 80.0702 136.399 79.3515 137.118ZM76.7335 136.992C77.4335 136.992 78.0215 136.754 78.4975 136.278C78.9735 135.802 79.2115 135.209 79.2115 134.5C79.2115 133.791 78.9735 133.198 78.4975 132.722C78.0215 132.246 77.4335 132.008 76.7335 132.008C76.0429 132.008 75.4595 132.246 74.9835 132.722C74.5075 133.198 74.2695 133.791 74.2695 134.5C74.2695 135.209 74.5075 135.802 74.9835 136.278C75.4595 136.754 76.0429 136.992 76.7335 136.992ZM85.3514 130.818C86.1727 130.818 86.8307 131.079 87.3254 131.602C87.8201 132.115 88.0674 132.815 88.0674 133.702V138H86.8494V133.772C86.8494 133.212 86.6954 132.773 86.3874 132.456C86.0794 132.139 85.6547 131.98 85.1134 131.98C84.4881 131.98 83.9934 132.176 83.6294 132.568C83.2654 132.951 83.0834 133.525 83.0834 134.29V138H81.8654V131H83.0834V132.008C83.5687 131.215 84.3247 130.818 85.3514 130.818Z" fill="#334155"/>
<g filter="url(#filter1_d_497_1312)">
<rect x="16" y="151" width="235" height="32" rx="3.58386" fill="white"/>
<path d="M224.834 170.912L226.306 170.4H226.946V176H226.21V171.2L225.018 171.552L224.834 170.912ZM231.494 169.6L228.294 176.8H227.878L231.078 169.6H231.494ZM231.912 170.912L233.384 170.4H234.024V176H233.288V171.2L232.096 171.552L231.912 170.912ZM238.764 175.312C238.39 175.84 237.86 176.104 237.172 176.104C236.484 176.104 235.953 175.84 235.58 175.312C235.201 174.779 235.012 174.075 235.012 173.2C235.012 172.325 235.201 171.621 235.58 171.088C235.953 170.56 236.484 170.296 237.172 170.296C237.86 170.296 238.39 170.56 238.764 171.088C239.142 171.621 239.332 172.325 239.332 173.2C239.332 174.075 239.142 174.779 238.764 175.312ZM235.756 173.2C235.756 173.893 235.878 174.429 236.124 174.808C236.369 175.187 236.718 175.376 237.172 175.376C237.625 175.376 237.974 175.187 238.22 174.808C238.47 174.429 238.596 173.893 238.596 173.2C238.596 172.507 238.47 171.971 238.22 171.592C237.974 171.208 237.625 171.016 237.172 171.016C236.718 171.016 236.369 171.205 236.124 171.584C235.878 171.963 235.756 172.501 235.756 173.2ZM243.803 175.312C243.43 175.84 242.899 176.104 242.211 176.104C241.523 176.104 240.992 175.84 240.619 175.312C240.24 174.779 240.051 174.075 240.051 173.2C240.051 172.325 240.24 171.621 240.619 171.088C240.992 170.56 241.523 170.296 242.211 170.296C242.899 170.296 243.43 170.56 243.803 171.088C244.182 171.621 244.371 172.325 244.371 173.2C244.371 174.075 244.182 174.779 243.803 175.312ZM240.795 173.2C240.795 173.893 240.918 174.429 241.163 174.808C241.408 175.187 241.758 175.376 242.211 175.376C242.664 175.376 243.014 175.187 243.259 174.808C243.51 174.429 243.635 173.893 243.635 173.2C243.635 172.507 243.51 171.971 243.259 171.592C243.014 171.208 242.664 171.016 242.211 171.016C241.758 171.016 241.408 171.205 241.163 171.584C240.918 171.963 240.795 172.501 240.795 173.2Z" fill="#61656B"/>
<rect x="16.224" y="151.224" width="234.552" height="31.552" rx="3.35987" stroke="#CBD5E1" stroke-width="0.447982"/>
</g>
<rect x="4.29167" y="108.292" width="258.417" height="92.4167" rx="4.375" stroke="#D0D5DD" stroke-width="0.583333"/>
</g>
<g filter="url(#filter2_d_497_1312)">
<rect x="144" width="259" height="96" rx="4.66667" fill="white"/>
<path d="M161.656 30.182C160.163 30.182 158.935 29.692 157.974 28.712C157.013 27.7413 156.532 26.5373 156.532 25.1C156.532 23.6627 157.013 22.4587 157.974 21.488C158.935 20.508 160.163 20.018 161.656 20.018C162.543 20.018 163.364 20.2327 164.12 20.662C164.876 21.0913 165.464 21.67 165.884 22.398L164.75 23.056C164.47 22.5147 164.05 22.0853 163.49 21.768C162.939 21.4413 162.328 21.278 161.656 21.278C160.517 21.278 159.593 21.642 158.884 22.37C158.175 23.0887 157.82 23.9987 157.82 25.1C157.82 26.192 158.175 27.0973 158.884 27.816C159.593 28.544 160.517 28.908 161.656 28.908C162.328 28.908 162.939 28.7493 163.49 28.432C164.05 28.1053 164.47 27.676 164.75 27.144L165.884 27.788C165.473 28.516 164.89 29.0993 164.134 29.538C163.387 29.9673 162.561 30.182 161.656 30.182ZM170.76 22.818C171.581 22.818 172.239 23.0793 172.734 23.602C173.228 24.1153 173.476 24.8153 173.476 25.702V30H172.258V25.772C172.258 25.212 172.104 24.7733 171.796 24.456C171.488 24.1387 171.063 23.98 170.522 23.98C169.896 23.98 169.402 24.176 169.038 24.568C168.674 24.9507 168.492 25.5247 168.492 26.29V30H167.274V20.2H168.492V24.008C168.977 23.2147 169.733 22.818 170.76 22.818ZM180.972 24.204V23H182.19V30H180.972V28.796C180.375 29.72 179.493 30.182 178.326 30.182C177.337 30.182 176.501 29.8273 175.82 29.118C175.129 28.3993 174.784 27.5267 174.784 26.5C174.784 25.4827 175.129 24.6147 175.82 23.896C176.511 23.1773 177.346 22.818 178.326 22.818C179.493 22.818 180.375 23.28 180.972 24.204ZM178.48 29.006C179.189 29.006 179.782 28.768 180.258 28.292C180.734 27.7973 180.972 27.2 180.972 26.5C180.972 25.7907 180.734 25.198 180.258 24.722C179.782 24.2367 179.189 23.994 178.48 23.994C177.78 23.994 177.192 24.2367 176.716 24.722C176.24 25.198 176.002 25.7907 176.002 26.5C176.002 27.2 176.24 27.7973 176.716 28.292C177.192 28.768 177.78 29.006 178.48 29.006ZM187.521 22.818C188.343 22.818 189.001 23.0793 189.495 23.602C189.99 24.1153 190.237 24.8153 190.237 25.702V30H189.019V25.772C189.019 25.212 188.865 24.7733 188.557 24.456C188.249 24.1387 187.825 23.98 187.283 23.98C186.658 23.98 186.163 24.176 185.799 24.568C185.435 24.9507 185.253 25.5247 185.253 26.29V30H184.035V23H185.253V24.008C185.739 23.2147 186.495 22.818 187.521 22.818ZM195.424 22.818C196.245 22.818 196.903 23.0793 197.398 23.602C197.892 24.1153 198.14 24.8153 198.14 25.702V30H196.922V25.772C196.922 25.212 196.768 24.7733 196.46 24.456C196.152 24.1387 195.727 23.98 195.186 23.98C194.56 23.98 194.066 24.176 193.702 24.568C193.338 24.9507 193.156 25.5247 193.156 26.29V30H191.938V23H193.156V24.008C193.641 23.2147 194.397 22.818 195.424 22.818ZM206.56 27.06H200.694C200.815 27.676 201.1 28.1613 201.548 28.516C201.996 28.8613 202.556 29.034 203.228 29.034C204.152 29.034 204.824 28.6933 205.244 28.012L206.28 28.6C205.589 29.6547 204.563 30.182 203.2 30.182C202.099 30.182 201.193 29.8367 200.484 29.146C199.793 28.4367 199.448 27.5547 199.448 26.5C199.448 25.436 199.789 24.5587 200.47 23.868C201.151 23.168 202.033 22.818 203.116 22.818C204.143 22.818 204.978 23.182 205.622 23.91C206.275 24.6193 206.602 25.4873 206.602 26.514C206.602 26.6913 206.588 26.8733 206.56 27.06ZM203.116 23.966C202.472 23.966 201.931 24.148 201.492 24.512C201.063 24.876 200.797 25.3707 200.694 25.996H205.37C205.267 25.352 205.011 24.8527 204.6 24.498C204.189 24.1433 203.695 23.966 203.116 23.966ZM209.22 30H208.002V19.78H209.22V30ZM220.794 27.508V20.2H222.096V30H221.046L216.006 22.678V30H214.704V20.2H215.754L220.794 27.508ZM229.863 24.204V23H231.081V30H229.863V28.796C229.265 29.72 228.383 30.182 227.217 30.182C226.227 30.182 225.392 29.8273 224.711 29.118C224.02 28.3993 223.675 27.5267 223.675 26.5C223.675 25.4827 224.02 24.6147 224.711 23.896C225.401 23.1773 226.237 22.818 227.217 22.818C228.383 22.818 229.265 23.28 229.863 24.204ZM227.371 29.006C228.08 29.006 228.673 28.768 229.149 28.292C229.625 27.7973 229.863 27.2 229.863 26.5C229.863 25.7907 229.625 25.198 229.149 24.722C228.673 24.2367 228.08 23.994 227.371 23.994C226.671 23.994 226.083 24.2367 225.607 24.722C225.131 25.198 224.893 25.7907 224.893 26.5C224.893 27.2 225.131 27.7973 225.607 28.292C226.083 28.768 226.671 29.006 227.371 29.006ZM240.486 22.818C241.279 22.818 241.914 23.0747 242.39 23.588C242.875 24.1013 243.118 24.7873 243.118 25.646V30H241.9V25.688C241.9 25.156 241.76 24.7407 241.48 24.442C241.209 24.134 240.836 23.98 240.36 23.98C239.819 23.98 239.394 24.162 239.086 24.526C238.787 24.8807 238.638 25.408 238.638 26.108V30H237.42V25.688C237.42 25.156 237.285 24.7407 237.014 24.442C236.753 24.134 236.393 23.98 235.936 23.98C235.404 23.98 234.97 24.1667 234.634 24.54C234.307 24.904 234.144 25.4267 234.144 26.108V30H232.926V23H234.144V23.938C234.62 23.1913 235.315 22.818 236.23 22.818C237.173 22.818 237.859 23.2147 238.288 24.008C238.773 23.2147 239.506 22.818 240.486 22.818ZM251.527 27.06H245.661C245.782 27.676 246.067 28.1613 246.515 28.516C246.963 28.8613 247.523 29.034 248.195 29.034C249.119 29.034 249.791 28.6933 250.211 28.012L251.247 28.6C250.556 29.6547 249.529 30.182 248.167 30.182C247.065 30.182 246.16 29.8367 245.451 29.146C244.76 28.4367 244.415 27.5547 244.415 26.5C244.415 25.436 244.755 24.5587 245.437 23.868C246.118 23.168 247 22.818 248.083 22.818C249.109 22.818 249.945 23.182 250.589 23.91C251.242 24.6193 251.569 25.4873 251.569 26.514C251.569 26.6913 251.555 26.8733 251.527 27.06ZM248.083 23.966C247.439 23.966 246.897 24.148 246.459 24.512C246.029 24.876 245.763 25.3707 245.661 25.996H250.337C250.234 25.352 249.977 24.8527 249.567 24.498C249.156 24.1433 248.661 23.966 248.083 23.966Z" fill="#334155"/>
<g filter="url(#filter3_d_497_1312)">
<rect x="156" y="43" width="235" height="35" rx="3.58386" fill="white"/>
<path d="M165.8 60.16V63.208H169.88V64H164.96V55.6H169.82V56.392H165.8V59.368H169.52V60.16H165.8ZM174.251 57.856C174.971 57.856 175.543 58.08 175.967 58.528C176.391 58.968 176.603 59.564 176.603 60.316V64H175.811V60.316C175.811 59.78 175.667 59.364 175.379 59.068C175.099 58.772 174.699 58.624 174.179 58.624C173.579 58.624 173.103 58.812 172.751 59.188C172.407 59.564 172.235 60.12 172.235 60.856V64H171.443V58H172.235V58.936C172.683 58.216 173.355 57.856 174.251 57.856ZM181.555 58V58.768H179.827V62.404C179.827 62.732 179.891 62.968 180.019 63.112C180.147 63.248 180.339 63.32 180.595 63.328C180.851 63.328 181.171 63.32 181.555 63.304V64C180.699 64.128 180.063 64.068 179.647 63.82C179.239 63.564 179.035 63.092 179.035 62.404V58.768H177.775V58H179.035V56.56L179.827 56.32V58H181.555ZM185.523 57.856C186.419 57.856 187.135 58.172 187.671 58.804C188.223 59.428 188.499 60.168 188.499 61.024C188.499 61.064 188.491 61.188 188.475 61.396H183.207C183.287 61.996 183.543 62.476 183.975 62.836C184.407 63.196 184.947 63.376 185.595 63.376C186.507 63.376 187.151 63.036 187.527 62.356L188.223 62.764C187.959 63.196 187.595 63.536 187.131 63.784C186.675 64.024 186.159 64.144 185.583 64.144C184.639 64.144 183.871 63.848 183.279 63.256C182.687 62.664 182.391 61.912 182.391 61C182.391 60.096 182.683 59.348 183.267 58.756C183.851 58.156 184.603 57.856 185.523 57.856ZM185.523 58.624C184.899 58.624 184.375 58.808 183.951 59.176C183.535 59.544 183.287 60.028 183.207 60.628H187.683C187.595 59.988 187.351 59.496 186.951 59.152C186.535 58.8 186.059 58.624 185.523 58.624ZM190.791 58V58.996C191.159 58.268 191.791 57.904 192.687 57.904V58.672C192.111 58.672 191.651 58.84 191.307 59.176C190.963 59.504 190.791 60 190.791 60.664V64H189.999V58H190.791ZM199.629 63.028L201.573 58H202.413L199.845 64.552C199.605 65.16 199.269 65.628 198.837 65.956C198.413 66.292 197.941 66.44 197.421 66.4V65.656C198.141 65.744 198.689 65.328 199.065 64.408L199.221 64.036L196.533 58H197.373L199.629 63.028ZM208.403 63.244C207.787 63.844 207.043 64.144 206.171 64.144C205.283 64.144 204.535 63.844 203.927 63.244C203.319 62.636 203.015 61.888 203.015 61C203.015 60.112 203.319 59.368 203.927 58.768C204.535 58.16 205.283 57.856 206.171 57.856C207.051 57.856 207.795 58.16 208.403 58.768C209.019 59.368 209.327 60.112 209.327 61C209.327 61.88 209.019 62.628 208.403 63.244ZM204.491 62.692C204.947 63.148 205.507 63.376 206.171 63.376C206.835 63.376 207.395 63.148 207.851 62.692C208.307 62.22 208.535 61.656 208.535 61C208.535 60.336 208.307 59.776 207.851 59.32C207.395 58.856 206.835 58.624 206.171 58.624C205.507 58.624 204.947 58.856 204.491 59.32C204.035 59.776 203.807 60.336 203.807 61C203.807 61.656 204.035 62.22 204.491 62.692ZM215.117 61.144V58H215.909V64H215.117V63.064C214.669 63.784 213.997 64.144 213.101 64.144C212.381 64.144 211.809 63.924 211.385 63.484C210.961 63.036 210.749 62.436 210.749 61.684V58H211.541V61.684C211.541 62.22 211.681 62.636 211.961 62.932C212.249 63.228 212.653 63.376 213.173 63.376C213.773 63.376 214.245 63.188 214.589 62.812C214.941 62.436 215.117 61.88 215.117 61.144ZM218.616 58V58.996C218.984 58.268 219.616 57.904 220.512 57.904V58.672C219.936 58.672 219.476 58.84 219.132 59.176C218.788 59.504 218.616 60 218.616 60.664V64H217.824V58H218.616ZM227.874 64.144C226.97 64.144 226.218 63.844 225.618 63.244C225.018 62.628 224.718 61.88 224.718 61C224.718 60.112 225.018 59.368 225.618 58.768C226.218 58.16 226.97 57.856 227.874 57.856C228.466 57.856 228.998 58 229.47 58.288C229.942 58.568 230.286 58.948 230.502 59.428L229.854 59.8C229.694 59.44 229.434 59.156 229.074 58.948C228.722 58.732 228.322 58.624 227.874 58.624C227.21 58.624 226.65 58.856 226.194 59.32C225.738 59.776 225.51 60.336 225.51 61C225.51 61.656 225.738 62.22 226.194 62.692C226.65 63.148 227.21 63.376 227.874 63.376C228.314 63.376 228.71 63.272 229.062 63.064C229.422 62.856 229.702 62.568 229.902 62.2L230.562 62.584C230.314 63.064 229.95 63.444 229.47 63.724C228.99 64.004 228.458 64.144 227.874 64.144ZM234.747 57.856C235.467 57.856 236.039 58.08 236.463 58.528C236.887 58.968 237.099 59.564 237.099 60.316V64H236.307V60.316C236.307 59.78 236.163 59.364 235.875 59.068C235.595 58.772 235.195 58.624 234.675 58.624C234.075 58.624 233.599 58.812 233.247 59.188C232.903 59.564 232.731 60.12 232.731 60.856V64H231.939V55.6H232.731V58.936C233.179 58.216 233.851 57.856 234.747 57.856ZM244.03 59.176V58H244.822V64H244.03V62.824C243.478 63.704 242.67 64.144 241.606 64.144C240.75 64.144 240.018 63.84 239.41 63.232C238.81 62.624 238.51 61.88 238.51 61C238.51 60.12 238.81 59.376 239.41 58.768C240.018 58.16 240.75 57.856 241.606 57.856C242.67 57.856 243.478 58.296 244.03 59.176ZM239.986 62.692C240.442 63.148 241.002 63.376 241.666 63.376C242.33 63.376 242.89 63.148 243.346 62.692C243.802 62.22 244.03 61.656 244.03 61C244.03 60.336 243.802 59.776 243.346 59.32C242.89 58.856 242.33 58.624 241.666 58.624C241.002 58.624 240.442 58.856 239.986 59.32C239.53 59.776 239.302 60.336 239.302 61C239.302 61.656 239.53 62.22 239.986 62.692ZM249.547 57.856C250.267 57.856 250.839 58.08 251.263 58.528C251.687 58.968 251.899 59.564 251.899 60.316V64H251.107V60.316C251.107 59.78 250.963 59.364 250.675 59.068C250.395 58.772 249.995 58.624 249.475 58.624C248.875 58.624 248.399 58.812 248.047 59.188C247.703 59.564 247.531 60.12 247.531 60.856V64H246.739V58H247.531V58.936C247.979 58.216 248.651 57.856 249.547 57.856ZM256.478 57.856C257.198 57.856 257.77 58.08 258.194 58.528C258.618 58.968 258.83 59.564 258.83 60.316V64H258.038V60.316C258.038 59.78 257.894 59.364 257.606 59.068C257.326 58.772 256.926 58.624 256.406 58.624C255.806 58.624 255.33 58.812 254.978 59.188C254.634 59.564 254.462 60.12 254.462 60.856V64H253.67V58H254.462V58.936C254.91 58.216 255.582 57.856 256.478 57.856ZM263.374 57.856C264.27 57.856 264.986 58.172 265.522 58.804C266.074 59.428 266.35 60.168 266.35 61.024C266.35 61.064 266.342 61.188 266.326 61.396H261.058C261.138 61.996 261.394 62.476 261.826 62.836C262.258 63.196 262.798 63.376 263.446 63.376C264.358 63.376 265.002 63.036 265.378 62.356L266.074 62.764C265.81 63.196 265.446 63.536 264.982 63.784C264.526 64.024 264.01 64.144 263.434 64.144C262.49 64.144 261.722 63.848 261.13 63.256C260.538 62.664 260.242 61.912 260.242 61C260.242 60.096 260.534 59.348 261.118 58.756C261.702 58.156 262.454 57.856 263.374 57.856ZM263.374 58.624C262.75 58.624 262.226 58.808 261.802 59.176C261.386 59.544 261.138 60.028 261.058 60.628H265.534C265.446 59.988 265.202 59.496 264.802 59.152C264.386 58.8 263.91 58.624 263.374 58.624ZM268.642 64H267.85V55.24H268.642V64ZM276.61 57.856C277.33 57.856 277.902 58.08 278.326 58.528C278.75 58.968 278.962 59.564 278.962 60.316V64H278.17V60.316C278.17 59.78 278.026 59.364 277.738 59.068C277.458 58.772 277.058 58.624 276.538 58.624C275.938 58.624 275.462 58.812 275.11 59.188C274.766 59.564 274.594 60.12 274.594 60.856V64H273.802V58H274.594V58.936C275.042 58.216 275.714 57.856 276.61 57.856ZM285.894 59.176V58H286.686V64H285.894V62.824C285.342 63.704 284.534 64.144 283.47 64.144C282.614 64.144 281.882 63.84 281.274 63.232C280.674 62.624 280.374 61.88 280.374 61C280.374 60.12 280.674 59.376 281.274 58.768C281.882 58.16 282.614 57.856 283.47 57.856C284.534 57.856 285.342 58.296 285.894 59.176ZM281.85 62.692C282.306 63.148 282.866 63.376 283.53 63.376C284.194 63.376 284.754 63.148 285.21 62.692C285.666 62.22 285.894 61.656 285.894 61C285.894 60.336 285.666 59.776 285.21 59.32C284.754 58.856 284.194 58.624 283.53 58.624C282.866 58.624 282.306 58.856 281.85 59.32C281.394 59.776 281.166 60.336 281.166 61C281.166 61.656 281.394 62.22 281.85 62.692ZM294.999 57.856C295.679 57.856 296.223 58.072 296.631 58.504C297.039 58.936 297.243 59.52 297.243 60.256V64H296.451V60.256C296.451 59.744 296.319 59.344 296.055 59.056C295.791 58.768 295.435 58.624 294.987 58.624C294.467 58.624 294.059 58.796 293.763 59.14C293.467 59.484 293.319 59.996 293.319 60.676V64H292.527V60.256C292.527 59.736 292.403 59.336 292.155 59.056C291.907 58.768 291.563 58.624 291.123 58.624C290.619 58.624 290.203 58.8 289.875 59.152C289.555 59.504 289.395 60.012 289.395 60.676V64H288.603V58H289.395V58.876C289.827 58.196 290.439 57.856 291.231 57.856C292.103 57.856 292.711 58.22 293.055 58.948C293.487 58.22 294.135 57.856 294.999 57.856ZM301.787 57.856C302.683 57.856 303.399 58.172 303.935 58.804C304.487 59.428 304.763 60.168 304.763 61.024C304.763 61.064 304.755 61.188 304.739 61.396H299.471C299.551 61.996 299.807 62.476 300.239 62.836C300.671 63.196 301.211 63.376 301.859 63.376C302.771 63.376 303.415 63.036 303.791 62.356L304.487 62.764C304.223 63.196 303.859 63.536 303.395 63.784C302.939 64.024 302.423 64.144 301.847 64.144C300.903 64.144 300.135 63.848 299.543 63.256C298.951 62.664 298.655 61.912 298.655 61C298.655 60.096 298.947 59.348 299.531 58.756C300.115 58.156 300.867 57.856 301.787 57.856ZM301.787 58.624C301.163 58.624 300.639 58.808 300.215 59.176C299.799 59.544 299.551 60.028 299.471 60.628H303.947C303.859 59.988 303.615 59.496 303.215 59.152C302.799 58.8 302.323 58.624 301.787 58.624Z" fill="#94A3B8"/>
<rect x="156.224" y="43.224" width="234.552" height="34.552" rx="3.35987" stroke="#CBD5E1" stroke-width="0.447982"/>
</g>
<rect x="144.292" y="0.291667" width="258.417" height="95.4167" rx="4.375" stroke="#D0D5DD" stroke-width="0.583333"/>
</g>
<defs>
<filter id="filter0_d_497_1312" x="0" y="108" width="263" height="97" filterUnits="userSpaceOnUse" color-interpolation-filters="sRGB">
<feFlood flood-opacity="0" result="BackgroundImageFix"/>
<feColorMatrix in="SourceAlpha" type="matrix" values="0 0 0 0 0 0 0 0 0 0 0 0 0 0 0 0 0 0 127 0" result="hardAlpha"/>
<feOffset dx="-4" dy="4"/>
<feColorMatrix type="matrix" values="0 0 0 0 0.54902 0 0 0 0 0.737255 0 0 0 0 0.917647 0 0 0 1 0"/>
<feBlend mode="normal" in2="BackgroundImageFix" result="effect1_dropShadow_497_1312"/>
<feBlend mode="normal" in="SourceGraphic" in2="effect1_dropShadow_497_1312" result="shape"/>
</filter>
<filter id="filter1_d_497_1312" x="15.104" y="150.552" width="236.792" height="33.7919" filterUnits="userSpaceOnUse" color-interpolation-filters="sRGB">
<feFlood flood-opacity="0" result="BackgroundImageFix"/>
<feColorMatrix in="SourceAlpha" type="matrix" values="0 0 0 0 0 0 0 0 0 0 0 0 0 0 0 0 0 0 127 0" result="hardAlpha"/>
<feOffset dy="0.447982"/>
<feGaussianBlur stdDeviation="0.447982"/>
<feColorMatrix type="matrix" values="0 0 0 0 0.0627451 0 0 0 0 0.0941176 0 0 0 0 0.156863 0 0 0 0.05 0"/>
<feBlend mode="normal" in2="BackgroundImageFix" result="effect1_dropShadow_497_1312"/>
<feBlend mode="normal" in="SourceGraphic" in2="effect1_dropShadow_497_1312" result="shape"/>
</filter>
<filter id="filter2_d_497_1312" x="140" y="0" width="263" height="100" filterUnits="userSpaceOnUse" color-interpolation-filters="sRGB">
<feFlood flood-opacity="0" result="BackgroundImageFix"/>
<feColorMatrix in="SourceAlpha" type="matrix" values="0 0 0 0 0 0 0 0 0 0 0 0 0 0 0 0 0 0 127 0" result="hardAlpha"/>
<feOffset dx="-4" dy="4"/>
<feColorMatrix type="matrix" values="0 0 0 0 0.976471 0 0 0 0 0.627451 0 0 0 0 0.619608 0 0 0 1 0"/>
<feBlend mode="normal" in2="BackgroundImageFix" result="effect1_dropShadow_497_1312"/>
<feBlend mode="normal" in="SourceGraphic" in2="effect1_dropShadow_497_1312" result="shape"/>
</filter>
<filter id="filter3_d_497_1312" x="155.104" y="42.552" width="236.792" height="36.7919" filterUnits="userSpaceOnUse" color-interpolation-filters="sRGB">
<feFlood flood-opacity="0" result="BackgroundImageFix"/>
<feColorMatrix in="SourceAlpha" type="matrix" values="0 0 0 0 0 0 0 0 0 0 0 0 0 0 0 0 0 0 127 0" result="hardAlpha"/>
<feOffset dy="0.447982"/>
<feGaussianBlur stdDeviation="0.447982"/>
<feColorMatrix type="matrix" values="0 0 0 0 0.0627451 0 0 0 0 0.0941176 0 0 0 0 0.156863 0 0 0 0.05 0"/>
<feBlend mode="normal" in2="BackgroundImageFix" result="effect1_dropShadow_497_1312"/>
<feBlend mode="normal" in="SourceGraphic" in2="effect1_dropShadow_497_1312" result="shape"/>
</filter>
<clipPath id="clip0_497_1312">
<rect x="122" y="65" width="177" height="147" rx="5.72926" fill="white"/>
</clipPath>
</defs>
</svg>
