<svg width="41" height="39" viewBox="0 0 41 39" fill="none" xmlns="http://www.w3.org/2000/svg">
<path fill-rule="evenodd" clip-rule="evenodd" d="M26.5472 2.52254e-06L23.1363 1.59485e-05L20.2019 3.41165H16.3815L16.3816 3.41153L12.9713 3.41035L6.47581 11.3715H6.43168V11.4256L4.15743 14.2131L6.43168 14.213V14.2143H13.823V14.2127H14.0389L21.0428 6.25446H24.239L-7.13492e-05 35.2525L3.87236 35.2525L30.5953 3.41176L28.0372 3.41199V3.41165H23.5447L26.5472 2.52254e-06ZM17.7568 6.25446H13.9873L9.67768 11.3715H13.3556L17.7568 6.25446Z" fill="#046ED1"/>
<path fill-rule="evenodd" clip-rule="evenodd" d="M14.1854 38.664L17.5963 38.664L20.5307 35.2524H24.351L24.3509 35.2525L27.7613 35.2537L34.2567 27.2925H34.3009V27.2384L36.5751 24.451L34.3009 24.451V24.4497H26.9096V24.4513H26.6936L19.6898 32.4096H16.4936L40.7326 3.41158H36.8602L10.1372 35.2523L12.6954 35.2521V35.2524H17.1879L14.1854 38.664ZM22.9758 32.4096H26.7453L31.0549 27.2925H27.377L22.9758 32.4096Z" fill="#046ED1"/>
</svg>
