<svg width="125" height="46" viewBox="0 0 125 46" fill="none" xmlns="http://www.w3.org/2000/svg">
<path fill-rule="evenodd" clip-rule="evenodd" d="M31.4629 0L27.4206 1.60281e-05L23.9433 4.04286H18.022L15.3727 4.04194L7.67473 13.4769H7.6194V13.5448L4.92712 16.8446H7.6194V16.846H16.3791V16.844H16.639L24.9398 7.41197H28.7269L0 41.779H4.58934L36.2596 4.04353L33.2247 4.0438V4.04286H27.9049L31.4629 0ZM21.0455 7.41197H16.5773L11.4694 13.4769H15.829L21.0455 7.41197Z" fill="white"/>
<path fill-rule="evenodd" clip-rule="evenodd" d="M16.8125 45.8223L20.8548 45.8222L24.3325 41.7789H28.8614L28.861 41.7794L32.9027 41.7808L40.6007 32.3458H40.6501V32.2852L43.3483 28.9782H40.6501V28.9767H31.8904V28.9783H31.6364L23.336 38.4098H19.5489L48.2754 4.0433H43.686L12.0158 41.7787L15.0468 41.7785V41.7789H20.3709L16.8125 45.8223ZM27.2303 38.4098H31.6989L36.806 32.3458H32.446L27.2303 38.4098Z" fill="white"/>
<path d="M65.7372 13.7459L56.8985 27.6167H65.9458V29.9111H54.0305V27.7992L62.8432 13.9545H54.2652V11.6601H65.7372V13.7459ZM80.4387 24.4358H69.5141C69.7401 25.583 70.2703 26.4869 71.1046 27.1474C71.9389 27.7905 72.9818 28.1121 74.2333 28.1121C75.9542 28.1121 77.2056 27.4777 77.9878 26.2088L79.9172 27.3038C78.631 29.268 76.719 30.2501 74.1812 30.2501C72.1301 30.2501 70.4441 29.6069 69.1231 28.3207C67.8368 26.9997 67.1937 25.3571 67.1937 23.3929C67.1937 21.4114 67.8281 19.7775 69.097 18.4912C70.3659 17.1876 72.0085 16.5357 74.0248 16.5357C75.9368 16.5357 77.4925 17.2136 78.6918 18.5694C79.9085 19.8905 80.5169 21.507 80.5169 23.419C80.5169 23.7492 80.4908 24.0882 80.4387 24.4358ZM74.0248 18.6737C72.8254 18.6737 71.8173 19.0127 71.0003 19.6906C70.2007 20.3685 69.7053 21.2897 69.5141 22.4543H78.2225C78.0313 21.2549 77.5533 20.325 76.7885 19.6645C76.0237 19.004 75.1024 18.6737 74.0248 18.6737ZM84.5706 20.3945C84.5706 21.2289 85.431 21.8807 87.1518 22.35C87.795 22.489 88.3338 22.6368 88.7684 22.7932C89.2203 22.9323 89.707 23.1496 90.2284 23.4451C90.7673 23.7405 91.1758 24.1316 91.4539 24.6183C91.732 25.105 91.871 25.6786 91.871 26.3391C91.871 27.5211 91.4104 28.4684 90.4892 29.1811C89.5679 29.8938 88.4033 30.2501 86.9954 30.2501C85.7439 30.2501 84.6575 29.9807 83.7363 29.4418C82.8324 28.8856 82.1893 28.1382 81.8069 27.1996L83.7624 26.0784C83.971 26.7042 84.362 27.1996 84.9357 27.5646C85.5093 27.9296 86.1958 28.1121 86.9954 28.1121C87.7776 28.1121 88.4033 27.9644 88.8727 27.6689C89.342 27.3734 89.5766 26.9301 89.5766 26.3391C89.5766 25.4527 88.7162 24.8095 86.9954 24.4098C86.4218 24.2533 85.9873 24.1316 85.6918 24.0447C85.3963 23.9578 84.9878 23.8014 84.4663 23.5754C83.9623 23.3495 83.5799 23.1148 83.3191 22.8715C83.0584 22.6107 82.8151 22.2718 82.5891 21.8546C82.3805 21.4201 82.2762 20.9421 82.2762 20.4206C82.2762 19.2908 82.7108 18.3608 83.5799 17.6308C84.4663 16.9008 85.5701 16.5357 86.8911 16.5357C87.9514 16.5357 88.89 16.7791 89.707 17.2658C90.5413 17.7351 91.1671 18.3956 91.5842 19.2473L89.6809 20.3163C89.2116 19.2039 88.2817 18.6476 86.8911 18.6476C86.2306 18.6476 85.6744 18.8041 85.2225 19.117C84.7879 19.4298 84.5706 19.8557 84.5706 20.3945ZM100.922 16.5357C102.451 16.5357 103.677 17.0224 104.598 17.9958C105.519 18.9518 105.98 20.2555 105.98 21.9068V29.9111H103.711V22.0371C103.711 20.9942 103.425 20.1773 102.851 19.5863C102.277 18.9953 101.487 18.6998 100.478 18.6998C99.3138 18.6998 98.3925 19.0648 97.7146 19.7949C97.0367 20.5075 96.6978 21.5765 96.6978 23.0018V29.9111H94.4294V11.6601H96.6978V18.7519C97.6016 17.2745 99.0096 16.5357 100.922 16.5357ZM119.941 19.117V16.8747H122.209V29.9111H119.941V27.6689C118.828 29.3897 117.186 30.2501 115.013 30.2501C113.17 30.2501 111.615 29.5896 110.346 28.2685C109.059 26.9301 108.416 25.3049 108.416 23.3929C108.416 21.4983 109.059 19.8818 110.346 18.5434C111.632 17.2049 113.188 16.5357 115.013 16.5357C117.186 16.5357 118.828 17.3961 119.941 19.117ZM115.3 28.06C116.621 28.06 117.724 27.6167 118.611 26.7302C119.497 25.809 119.941 24.6966 119.941 23.3929C119.941 22.0719 119.497 20.9681 118.611 20.0817C117.724 19.1778 116.621 18.7259 115.3 18.7259C113.996 18.7259 112.901 19.1778 112.014 20.0817C111.128 20.9681 110.685 22.0719 110.685 23.3929C110.685 24.6966 111.128 25.809 112.014 26.7302C112.901 27.6167 113.996 28.06 115.3 28.06Z" fill="white"/>
</svg>
