<svg width="105" height="39" viewBox="0 0 105 39" fill="none" xmlns="http://www.w3.org/2000/svg">
<path fill-rule="evenodd" clip-rule="evenodd" d="M26.5472 0L23.1363 1.33465e-05L20.202 3.41164H16.3816L16.3817 3.41153L12.9713 3.41035L6.47588 11.3715H6.43175V11.4256L4.15751 14.213H6.43175V14.2143H13.8231V14.2127H14.039L21.0428 6.25446H24.239L0 35.2525H3.87243L30.5954 3.41176L28.0372 3.41199V3.41164H23.5447L26.5472 0ZM17.7568 6.25446H13.9874L9.67775 11.3715H13.3556L17.7568 6.25446Z" fill="#046ED1"/>
<path fill-rule="evenodd" clip-rule="evenodd" d="M14.1852 38.6641L17.5961 38.664L20.5305 35.2524H24.3508L24.3507 35.2525L27.7611 35.2537L34.2565 27.2925H34.3007V27.2385L36.5749 24.451L34.3007 24.451V24.4497H26.9094V24.4513H26.6934L19.6896 32.4096H16.4934L40.7324 3.41159H36.86L10.137 35.2523L12.6952 35.2521V35.2524H17.1877L14.1852 38.6641ZM22.9756 32.4096H26.7451L31.0547 27.2925H27.3768L22.9756 32.4096Z" fill="#046ED1"/>
<path d="M55.4684 12.192L48.0104 23.896H55.6444V25.832H45.5904V24.05L53.0264 12.368H45.7884V10.432H55.4684V12.192ZM67.8733 21.212H58.6553C58.846 22.18 59.2933 22.9427 59.9973 23.5C60.7013 24.0427 61.5813 24.314 62.6373 24.314C64.0893 24.314 65.1453 23.7787 65.8053 22.708L67.4333 23.632C66.348 25.2894 64.7347 26.118 62.5933 26.118C60.8627 26.118 59.44 25.5754 58.3253 24.49C57.24 23.3754 56.6973 21.9894 56.6973 20.332C56.6973 18.66 57.2327 17.2814 58.3033 16.196C59.374 15.096 60.76 14.546 62.4613 14.546C64.0747 14.546 65.3873 15.118 66.3993 16.262C67.426 17.3767 67.9393 18.7407 67.9393 20.354C67.9393 20.6327 67.9173 20.9187 67.8733 21.212ZM62.4613 16.35C61.4493 16.35 60.5987 16.636 59.9093 17.208C59.2347 17.78 58.8167 18.5574 58.6553 19.54H66.0033C65.842 18.528 65.4387 17.7434 64.7933 17.186C64.148 16.6287 63.3707 16.35 62.4613 16.35ZM71.3598 17.802C71.3598 18.506 72.0858 19.056 73.5378 19.452C74.0805 19.5694 74.5351 19.694 74.9018 19.826C75.2831 19.9434 75.6938 20.1267 76.1338 20.376C76.5885 20.6254 76.9331 20.9554 77.1678 21.366C77.4025 21.7767 77.5198 22.2607 77.5198 22.818C77.5198 23.8154 77.1311 24.6147 76.3538 25.216C75.5765 25.8174 74.5938 26.118 73.4058 26.118C72.3498 26.118 71.4331 25.8907 70.6558 25.436C69.8931 24.9667 69.3505 24.336 69.0278 23.544L70.6778 22.598C70.8538 23.126 71.1838 23.544 71.6678 23.852C72.1518 24.16 72.7311 24.314 73.4058 24.314C74.0658 24.314 74.5938 24.1894 74.9898 23.94C75.3858 23.6907 75.5838 23.3167 75.5838 22.818C75.5838 22.07 74.8578 21.5274 73.4058 21.19C72.9218 21.058 72.5551 20.9554 72.3058 20.882C72.0565 20.8087 71.7118 20.6767 71.2718 20.486C70.8465 20.2954 70.5238 20.0974 70.3038 19.892C70.0838 19.672 69.8785 19.386 69.6878 19.034C69.5118 18.6674 69.4238 18.264 69.4238 17.824C69.4238 16.8707 69.7905 16.086 70.5238 15.47C71.2718 14.854 72.2031 14.546 73.3178 14.546C74.2125 14.546 75.0045 14.7514 75.6938 15.162C76.3978 15.558 76.9258 16.1154 77.2778 16.834L75.6718 17.736C75.2758 16.7974 74.4911 16.328 73.3178 16.328C72.7605 16.328 72.2911 16.46 71.9098 16.724C71.5431 16.988 71.3598 17.3474 71.3598 17.802ZM85.1566 14.546C86.4472 14.546 87.4812 14.9567 88.2586 15.778C89.0359 16.5847 89.4246 17.6847 89.4246 19.078V25.832H87.5106V19.188C87.5106 18.308 87.2686 17.6187 86.7846 17.12C86.3006 16.6214 85.6332 16.372 84.7826 16.372C83.7999 16.372 83.0226 16.68 82.4506 17.296C81.8786 17.8974 81.5926 18.7994 81.5926 20.002V25.832H79.6786V10.432H81.5926V16.416C82.3552 15.1694 83.5432 14.546 85.1566 14.546ZM101.205 16.724V14.832H103.119V25.832H101.205V23.94C100.266 25.392 98.8799 26.118 97.0465 26.118C95.4919 26.118 94.1792 25.5607 93.1085 24.446C92.0232 23.3167 91.4805 21.9454 91.4805 20.332C91.4805 18.7334 92.0232 17.3694 93.1085 16.24C94.1939 15.1107 95.5065 14.546 97.0465 14.546C98.8799 14.546 100.266 15.272 101.205 16.724ZM97.2885 24.27C98.4032 24.27 99.3345 23.896 100.083 23.148C100.831 22.3707 101.205 21.432 101.205 20.332C101.205 19.2174 100.831 18.286 100.083 17.538C99.3345 16.7754 98.4032 16.394 97.2885 16.394C96.1885 16.394 95.2645 16.7754 94.5165 17.538C93.7685 18.286 93.3945 19.2174 93.3945 20.332C93.3945 21.432 93.7685 22.3707 94.5165 23.148C95.2645 23.896 96.1885 24.27 97.2885 24.27Z" fill="#0B0A1D"/>
</svg>
