<svg width="29" height="57" viewBox="0 0 29 57" fill="none" xmlns="http://www.w3.org/2000/svg">
<path d="M19.7252 40.3304C20.919 42.4988 21.2026 45.0527 20.5135 47.4302C19.8243 49.8077 18.219 51.8141 16.0505 53.0079C13.8821 54.2018 11.3282 54.4853 8.95074 53.7962C6.57324 53.1071 4.56688 51.5017 3.37302 49.3333C2.17917 47.1649 1.89561 44.611 2.58474 42.2335C3.27387 39.856 4.87922 37.8497 7.04765 36.6558C9.21608 35.4619 11.77 35.1784 14.1475 35.8675C16.5249 36.5566 18.5313 38.162 19.7252 40.3304ZM19.7252 40.3304L3.97012 11.7142M7.23939 4.88003L17.9282 2.91064C20.5205 2.44235 23.6809 3.9253 24.9525 6.23504L26.2692 8.62654C27.991 11.7539 26.5356 14.8192 23.0316 15.4699L12.3428 17.4393C9.75056 17.9075 6.59014 16.4246 5.31848 14.1149L3.99056 11.7029C2.25957 8.60727 3.72414 5.51024 7.23939 4.88003Z" stroke="#F93D3D" stroke-width="4" stroke-linecap="round" stroke-linejoin="round"/>
</svg>
