<svg width="126" height="126" viewBox="0 0 126 126" fill="none" xmlns="http://www.w3.org/2000/svg">
<g clip-path="url(#clip0_215_1929)">
<path d="M28.6296 99.2073C32.1128 100.059 35.7915 99.4919 38.8566 97.631C41.9217 95.7702 44.1221 92.768 44.9736 89.2849C45.8252 85.8017 45.2582 82.123 43.3974 79.0579C41.5365 75.9928 38.5343 73.7924 35.0512 72.9409C31.568 72.0893 27.8893 72.6563 24.8242 74.5171C21.7591 76.378 19.5587 79.3802 18.7072 82.8633C17.8556 86.3465 18.4226 90.0252 20.2835 93.0903C22.1443 96.1554 25.1465 98.3558 28.6296 99.2073Z" stroke="#F93D3D" stroke-width="4" stroke-linecap="round" stroke-linejoin="round"/>
<path d="M95.2697 92.3022L107.825 40.948C110.5 30.0037 104.009 26.8109 96.6009 27.0071L68.585 27.7414C63.4674 27.8732 59.2579 30.8589 57.92 36.3311L44.9843 89.2428" stroke="#F93D3D" stroke-width="4" stroke-linecap="round" stroke-linejoin="round"/>
<path d="M54.6056 49.8852L105.972 48.5248M78.9249 102.225C82.4081 103.076 86.0869 102.509 89.1519 100.648C92.217 98.7875 94.4174 95.7853 95.2689 92.3022C96.1205 88.819 95.5535 85.1403 93.6927 82.0752C91.8318 79.0101 88.8296 76.8097 85.3465 75.9582C81.8634 75.1066 78.1846 75.6736 75.1195 77.5345C72.0544 79.3953 69.8541 82.3975 69.0025 85.8806C68.151 89.3638 68.718 93.0425 70.5788 96.1076C72.4396 99.1727 75.4418 101.373 78.9249 102.225Z" stroke="#F93D3D" stroke-width="4" stroke-linecap="round" stroke-linejoin="round"/>
</g>
<defs>
<clipPath id="clip0_215_1929">
<rect width="104" height="104" fill="white" transform="translate(24.8359 0.13855) rotate(13.7381)"/>
</clipPath>
</defs>
</svg>
