<svg width="196" height="196" viewBox="0 0 196 196" fill="none" xmlns="http://www.w3.org/2000/svg">
<path d="M122.499 185.792H73.4987C29.1537 185.792 10.207 166.845 10.207 122.5V73.5C10.207 29.155 29.1537 10.2083 73.4987 10.2083H122.499C166.844 10.2083 185.79 29.155 185.79 73.5V122.5C185.79 166.845 166.844 185.792 122.499 185.792ZM73.4987 22.4583C35.8504 22.4583 22.457 35.8516 22.457 73.5V122.5C22.457 160.148 35.8504 173.542 73.4987 173.542H122.499C160.147 173.542 173.54 160.148 173.54 122.5V73.5C173.54 35.8516 160.147 22.4583 122.499 22.4583H73.4987Z" fill="#3B3C3F"/>
<path d="M175.418 64.19H20.5781C18.9537 64.19 17.3958 63.5447 16.2471 62.396C15.0984 61.2474 14.4531 59.6895 14.4531 58.065C14.4531 56.4406 15.0984 54.8826 16.2471 53.734C17.3958 52.5853 18.9537 51.94 20.5781 51.94H175.418C177.043 51.94 178.6 52.5853 179.749 53.734C180.898 54.8826 181.543 56.4406 181.543 58.065C181.543 59.6895 180.898 61.2474 179.749 62.396C178.6 63.5447 177.043 64.19 175.418 64.19Z" fill="#3B3C3F"/>
<path d="M69.5781 63.0467C66.2298 63.0467 63.4531 60.27 63.4531 56.9217V17.2317C63.4531 13.8834 66.2298 11.1067 69.5781 11.1067C72.9265 11.1067 75.7031 13.8834 75.7031 17.2317V56.9217C75.7031 60.27 72.9265 63.0467 69.5781 63.0467ZM126.418 59.3717C123.07 59.3717 120.293 56.595 120.293 53.2467V17.2317C120.293 13.8834 123.07 11.1067 126.418 11.1067C129.766 11.1067 132.543 13.8834 132.543 17.2317V53.2467C132.543 56.6767 129.848 59.3717 126.418 59.3717ZM90.5665 147.988C87.6265 147.988 84.8498 147.253 82.3181 145.865C76.7648 142.598 73.4981 136.065 73.4981 127.817V108.217C73.4981 99.9682 76.7648 93.3532 82.3998 90.0865C88.0348 86.8199 95.3848 87.3099 102.49 91.4749L119.476 101.275C126.581 105.358 130.746 111.483 130.746 118.017C130.746 124.55 126.581 130.675 119.395 134.758L102.408 144.558C98.4881 146.845 94.4048 147.988 90.5665 147.988ZM90.6481 100.213C89.8315 100.213 89.0965 100.377 88.5248 100.703C86.8098 101.683 85.7481 104.46 85.7481 108.217V127.817C85.7481 131.492 86.8098 134.268 88.5248 135.33C90.2398 136.31 93.1798 135.82 96.3648 133.942L113.351 124.142C116.536 122.263 118.496 119.977 118.496 118.017C118.496 116.057 116.618 113.77 113.351 111.892L96.3648 102.092C94.2415 100.867 92.1998 100.213 90.6481 100.213Z" fill="#3B3C3F"/>
</svg>
