<svg width="59" height="17" viewBox="0 0 59 17" fill="none" xmlns="http://www.w3.org/2000/svg">
<path d="M10.4684 2.19203L3.01042 13.896H10.6444V15.832H0.590422V14.05L8.02642 2.36803H0.788422V0.43203H10.4684V2.19203ZM22.8733 11.212H13.6553C13.846 12.18 14.2933 12.9427 14.9973 13.5C15.7013 14.0427 16.5813 14.314 17.6373 14.314C19.0893 14.314 20.1453 13.7787 20.8053 12.708L22.4333 13.632C21.348 15.2894 19.7347 16.118 17.5933 16.118C15.8627 16.118 14.44 15.5754 13.3253 14.49C12.24 13.3754 11.6973 11.9894 11.6973 10.332C11.6973 8.66003 12.2327 7.28136 13.3033 6.19603C14.374 5.09603 15.76 4.54603 17.4613 4.54603C19.0747 4.54603 20.3873 5.11803 21.3993 6.26203C22.426 7.3767 22.9393 8.7407 22.9393 10.354C22.9393 10.6327 22.9173 10.9187 22.8733 11.212ZM17.4613 6.35003C16.4493 6.35003 15.5987 6.63603 14.9093 7.20803C14.2347 7.78003 13.8167 8.55736 13.6553 9.54003H21.0033C20.842 8.52803 20.4387 7.74336 19.7933 7.18603C19.148 6.6287 18.3707 6.35003 17.4613 6.35003ZM26.3598 7.80203C26.3598 8.50603 27.0858 9.05603 28.5378 9.45203C29.0805 9.56936 29.5351 9.69403 29.9018 9.82603C30.2831 9.94336 30.6938 10.1267 31.1338 10.376C31.5885 10.6254 31.9331 10.9554 32.1678 11.366C32.4025 11.7767 32.5198 12.2607 32.5198 12.818C32.5198 13.8154 32.1311 14.6147 31.3538 15.216C30.5765 15.8174 29.5938 16.118 28.4058 16.118C27.3498 16.118 26.4331 15.8907 25.6558 15.436C24.8931 14.9667 24.3505 14.336 24.0278 13.544L25.6778 12.598C25.8538 13.126 26.1838 13.544 26.6678 13.852C27.1518 14.16 27.7311 14.314 28.4058 14.314C29.0658 14.314 29.5938 14.1894 29.9898 13.94C30.3858 13.6907 30.5838 13.3167 30.5838 12.818C30.5838 12.07 29.8578 11.5274 28.4058 11.19C27.9218 11.058 27.5551 10.9554 27.3058 10.882C27.0565 10.8087 26.7118 10.6767 26.2718 10.486C25.8465 10.2954 25.5238 10.0974 25.3038 9.89203C25.0838 9.67203 24.8785 9.38603 24.6878 9.03403C24.5118 8.66736 24.4238 8.26403 24.4238 7.82403C24.4238 6.8707 24.7905 6.08603 25.5238 5.47003C26.2718 4.85403 27.2031 4.54603 28.3178 4.54603C29.2125 4.54603 30.0045 4.75136 30.6938 5.16203C31.3978 5.55803 31.9258 6.11536 32.2778 6.83403L30.6718 7.73603C30.2758 6.79736 29.4911 6.32803 28.3178 6.32803C27.7605 6.32803 27.2911 6.46003 26.9098 6.72403C26.5431 6.98803 26.3598 7.34736 26.3598 7.80203ZM40.1566 4.54603C41.4472 4.54603 42.4812 4.9567 43.2586 5.77803C44.0359 6.5847 44.4246 7.6847 44.4246 9.07803V15.832H42.5106V9.18803C42.5106 8.30803 42.2686 7.6187 41.7846 7.12003C41.3006 6.62136 40.6332 6.37203 39.7826 6.37203C38.7999 6.37203 38.0226 6.68003 37.4506 7.29603C36.8786 7.89736 36.5926 8.79936 36.5926 10.002V15.832H34.6786V0.43203H36.5926V6.41603C37.3552 5.16936 38.5432 4.54603 40.1566 4.54603ZM56.2045 6.72403V4.83203H58.1185V15.832H56.2045V13.94C55.2659 15.392 53.8799 16.118 52.0465 16.118C50.4919 16.118 49.1792 15.5607 48.1085 14.446C47.0232 13.3167 46.4805 11.9454 46.4805 10.332C46.4805 8.73336 47.0232 7.36936 48.1085 6.24003C49.1939 5.1107 50.5065 4.54603 52.0465 4.54603C53.8799 4.54603 55.2659 5.27203 56.2045 6.72403ZM52.2885 14.27C53.4032 14.27 54.3345 13.896 55.0825 13.148C55.8305 12.3707 56.2045 11.432 56.2045 10.332C56.2045 9.21736 55.8305 8.28603 55.0825 7.53803C54.3345 6.77536 53.4032 6.39403 52.2885 6.39403C51.1885 6.39403 50.2645 6.77536 49.5165 7.53803C48.7685 8.28603 48.3945 9.21736 48.3945 10.332C48.3945 11.432 48.7685 12.3707 49.5165 13.148C50.2645 13.896 51.1885 14.27 52.2885 14.27Z" fill="#0B0A1D"/>
</svg>
